<?xml version="1.0" encoding="utf-8" standalone="no"?>
<!DOCTYPE svg PUBLIC "-//W3C//DTD SVG 1.1//EN"
  "http://www.w3.org/Graphics/SVG/1.1/DTD/svg11.dtd">
<svg xmlns:xlink="http://www.w3.org/1999/xlink" width="532.08pt" height="235.728pt" viewBox="0 0 532.08 235.728" xmlns="http://www.w3.org/2000/svg" version="1.1">
 <metadata>
  <rdf:RDF xmlns:dc="http://purl.org/dc/elements/1.1/" xmlns:cc="http://creativecommons.org/ns#" xmlns:rdf="http://www.w3.org/1999/02/22-rdf-syntax-ns#">
   <cc:Work>
    <dc:type rdf:resource="http://purl.org/dc/dcmitype/StillImage"/>
    <dc:date>2026-09-15T05:02:20.875773</dc:date>
    <dc:format>image/svg+xml</dc:format>
    <dc:creator>
     <cc:Agent>
      <dc:title>Matplotlib v3.8.2, https://matplotlib.org/</dc:title>
     </cc:Agent>
    </dc:creator>
   </cc:Work>
  </rdf:RDF>
 </metadata>
 <defs>
  <style type="text/css">*{stroke-linejoin: round; stroke-linecap: butt}</style>
 </defs>
 <g id="figure_1">
  <g id="patch_1">
   <path d="M 0 235.728
L 532.08 235.728
L 532.08 0
L 0 0
z
" style="fill: #ffffff"/>
  </g>
  <g id="axes_1">
   <g id="patch_2">
    <path d="M 10.701 75.7926
L 100.1358 75.7926
Q 104.8986 75.7926 104.8986 71.0298
L 104.8986 31.3398
Q 104.8986 26.577 100.1358 26.577
L 10.701 26.577
Q 5.9382 26.577 5.9382 31.3398
L 5.9382 71.0298
Q 5.9382 75.7926 10.701 75.7926
z
" clip-path="url(#p2a360f463f)" style="fill: #edf4fb; stroke: #405366; stroke-linejoin: miter"/>
   </g>
   <g id="patch_3">
    <path d="M 123.9498 75.7926
L 228.2022 75.7926
Q 232.965 75.7926 232.965 71.0298
L 232.965 31.3398
Q 232.965 26.577 228.2022 26.577
L 123.9498 26.577
Q 119.187 26.577 119.187 31.3398
L 119.187 71.0298
Q 119.187 75.7926 123.9498 75.7926
z
" clip-path="url(#p2a360f463f)" style="fill: #e7f1e5; stroke: #405366; stroke-linejoin: miter"/>
   </g>
   <g id="patch_4">
    <path d="M 252.0162 75.7926
L 390.1374 75.7926
Q 394.9002 75.7926 394.9002 71.0298
L 394.9002 31.3398
Q 394.9002 26.577 390.1374 26.577
L 252.0162 26.577
Q 247.2534 26.577 247.2534 31.3398
L 247.2534 71.0298
Q 247.2534 75.7926 252.0162 75.7926
z
" clip-path="url(#p2a360f463f)" style="fill: #e8eef9; stroke: #405366; stroke-linejoin: miter"/>
   </g>
   <g id="patch_5">
    <path d="M 414.4806 75.7926
L 518.733 75.7926
Q 523.4958 75.7926 523.4958 71.0298
L 523.4958 31.3398
Q 523.4958 26.577 518.733 26.577
L 414.4806 26.577
Q 409.7178 26.577 409.7178 31.3398
L 409.7178 71.0298
Q 409.7178 75.7926 414.4806 75.7926
z
" clip-path="url(#p2a360f463f)" style="fill: #edf4fb; stroke: #405366; stroke-linejoin: miter"/>
   </g>
   <g id="patch_6">
    <path d="M 106.101832 51.1848
Q 111.777765 51.1848 116.056155 51.1848
" clip-path="url(#p2a360f463f)" style="fill: none; stroke: #405366; stroke-width: 1.25; stroke-linecap: round"/>
    <path d="M 110.856155 48.5848
L 116.056155 51.1848
L 110.856155 53.7848
z
" clip-path="url(#p2a360f463f)" style="fill: #405366; stroke: #405366; stroke-width: 1.25; stroke-linecap: round"/>
   </g>
   <g id="patch_7">
    <path d="M 234.700921 51.1848
Q 240.109691 51.1848 244.120918 51.1848
" clip-path="url(#p2a360f463f)" style="fill: none; stroke: #405366; stroke-width: 1.25; stroke-linecap: round"/>
    <path d="M 238.920918 48.5848
L 244.120918 51.1848
L 238.920918 53.7848
z
" clip-path="url(#p2a360f463f)" style="fill: #405366; stroke: #405366; stroke-width: 1.25; stroke-linecap: round"/>
   </g>
   <g id="patch_8">
    <path d="M 396.632632 51.1848
Q 402.308565 51.1848 406.586955 51.1848
" clip-path="url(#p2a360f463f)" style="fill: none; stroke: #405366; stroke-width: 1.25; stroke-linecap: round"/>
    <path d="M 401.386955 48.5848
L 406.586955 51.1848
L 401.386955 53.7848
z
" clip-path="url(#p2a360f463f)" style="fill: #405366; stroke: #405366; stroke-width: 1.25; stroke-linecap: round"/>
   </g>
   <g id="patch_9">
    <path d="M 10.701 192.2166
L 100.1358 192.2166
Q 104.8986 192.2166 104.8986 187.4538
L 104.8986 141.9426
Q 104.8986 137.1798 100.1358 137.1798
L 10.701 137.1798
Q 5.9382 137.1798 5.9382 141.9426
L 5.9382 187.4538
Q 5.9382 192.2166 10.701 192.2166
z
" clip-path="url(#p2a360f463f)" style="fill: #edf4fb; stroke: #405366; stroke-linejoin: miter"/>
   </g>
   <g id="patch_10">
    <path d="M 129.771 162.0522
L 237.1986 162.0522
Q 241.9614 162.0522 241.9614 157.2894
L 241.9614 129.2418
Q 241.9614 124.479 237.1986 124.479
L 129.771 124.479
Q 125.0082 124.479 125.0082 129.2418
L 125.0082 157.2894
Q 125.0082 162.0522 129.771 162.0522
z
" clip-path="url(#p2a360f463f)" style="fill: #faeee1; stroke: #405366; stroke-linejoin: miter"/>
   </g>
   <g id="patch_11">
    <path d="M 129.771 213.3846
L 237.1986 213.3846
Q 241.9614 213.3846 241.9614 208.6218
L 241.9614 180.5742
Q 241.9614 175.8114 237.1986 175.8114
L 129.771 175.8114
Q 125.0082 175.8114 125.0082 180.5742
L 125.0082 208.6218
Q 125.0082 213.3846 129.771 213.3846
z
" clip-path="url(#p2a360f463f)" style="fill: #f4f0e8; stroke: #405366; stroke-linejoin: miter"/>
   </g>
   <g id="patch_12">
    <path d="M 270.5382 192.2166
L 380.0826 192.2166
Q 384.8454 192.2166 384.8454 187.4538
L 384.8454 141.9426
Q 384.8454 137.1798 380.0826 137.1798
L 270.5382 137.1798
Q 265.7754 137.1798 265.7754 141.9426
L 265.7754 187.4538
Q 265.7754 192.2166 270.5382 192.2166
z
" clip-path="url(#p2a360f463f)" style="fill: #faeee1; stroke: #405366; stroke-linejoin: miter"/>
   </g>
   <g id="patch_13">
    <path d="M 414.4806 192.2166
L 518.733 192.2166
Q 523.4958 192.2166 523.4958 187.4538
L 523.4958 141.9426
Q 523.4958 137.1798 518.733 137.1798
L 414.4806 137.1798
Q 409.7178 137.1798 409.7178 141.9426
L 409.7178 187.4538
Q 409.7178 192.2166 414.4806 192.2166
z
" clip-path="url(#p2a360f463f)" style="fill: #e7f1e5; stroke: #405366; stroke-linejoin: miter"/>
   </g>
   <g id="patch_14">
    <path d="M 106.319468 155.944372
Q 114.955126 150.408693 122.414223 145.627221
" clip-path="url(#p2a360f463f)" style="fill: none; stroke: #405366; stroke-width: 1.25; stroke-linecap: round"/>
    <path d="M 116.633319 146.2446
L 122.414223 145.627221
L 119.439583 150.622371
z
" clip-path="url(#p2a360f463f)" style="fill: #405366; stroke: #405366; stroke-width: 1.25; stroke-linecap: round"/>
   </g>
   <g id="patch_15">
    <path d="M 106.082646 175.862757
Q 114.952704 184.27794 122.808896 191.73125
" clip-path="url(#p2a360f463f)" style="fill: none; stroke: #405366; stroke-width: 1.25; stroke-linecap: round"/>
    <path d="M 120.825962 186.266091
L 122.808896 191.73125
L 117.247008 190.038502
z
" clip-path="url(#p2a360f463f)" style="fill: #405366; stroke: #405366; stroke-width: 1.25; stroke-linecap: round"/>
   </g>
   <g id="patch_16">
    <path d="M 243.470834 144.720383
Q 253.869677 150.145866 263.029479 154.924893
" clip-path="url(#p2a360f463f)" style="fill: none; stroke: #405366; stroke-width: 1.25; stroke-linecap: round"/>
    <path d="M 259.621909 150.214429
L 263.029479 154.924893
L 257.216566 154.824671
z
" clip-path="url(#p2a360f463f)" style="fill: #405366; stroke: #405366; stroke-width: 1.25; stroke-linecap: round"/>
   </g>
   <g id="patch_17">
    <path d="M 243.256881 192.813953
Q 253.86833 184.278656 263.390795 176.619282
" clip-path="url(#p2a360f463f)" style="fill: none; stroke: #405366; stroke-width: 1.25; stroke-linecap: round"/>
    <path d="M 257.709313 177.852472
L 263.390795 176.619282
L 260.968458 181.904382
z
" clip-path="url(#p2a360f463f)" style="fill: #405366; stroke: #405366; stroke-width: 1.25; stroke-linecap: round"/>
   </g>
   <g id="patch_18">
    <path d="M 386.580804 164.9628
Q 397.28035 164.9628 406.582353 164.9628
" clip-path="url(#p2a360f463f)" style="fill: none; stroke: #405366; stroke-width: 1.25; stroke-linecap: round"/>
    <path d="M 401.382353 162.3628
L 406.582353 164.9628
L 401.382353 167.5628
z
" clip-path="url(#p2a360f463f)" style="fill: #405366; stroke: #405366; stroke-width: 1.25; stroke-linecap: round"/>
   </g>
   <g id="line2d_1">
    <path d="M 6.732 91.9332
L 524.2896 91.9332
" clip-path="url(#p2a360f463f)" style="fill: none; stroke: #cad3dc; stroke-width: 0.9; stroke-linecap: square"/>
   </g>
   <g id="text_1">
    <!-- GENERATION -->
    <g style="fill: #163b65" transform="translate(6.732 14.67) scale(0.12 -0.12)">
     <defs>
      <path id="DejaVuSans-Bold-47" d="M 4781 347
Q 4331 128 3847 18
Q 3363 -91 2847 -91
Q 1681 -91 1000 561
Q 319 1213 319 2328
Q 319 3456 1012 4103
Q 1706 4750 2913 4750
Q 3378 4750 3804 4662
Q 4231 4575 4609 4403
L 4609 3438
Q 4219 3659 3833 3768
Q 3447 3878 3059 3878
Q 2341 3878 1952 3476
Q 1563 3075 1563 2328
Q 1563 1588 1938 1184
Q 2313 781 3003 781
Q 3191 781 3352 804
Q 3513 828 3641 878
L 3641 1784
L 2906 1784
L 2906 2591
L 4781 2591
L 4781 347
z
" transform="scale(0.015625)"/>
      <path id="DejaVuSans-Bold-45" d="M 588 4666
L 3834 4666
L 3834 3756
L 1791 3756
L 1791 2888
L 3713 2888
L 3713 1978
L 1791 1978
L 1791 909
L 3903 909
L 3903 0
L 588 0
L 588 4666
z
" transform="scale(0.015625)"/>
      <path id="DejaVuSans-Bold-4e" d="M 588 4666
L 1931 4666
L 3628 1466
L 3628 4666
L 4769 4666
L 4769 0
L 3425 0
L 1728 3200
L 1728 0
L 588 0
L 588 4666
z
" transform="scale(0.015625)"/>
      <path id="DejaVuSans-Bold-52" d="M 2297 2597
Q 2675 2597 2839 2737
Q 3003 2878 3003 3200
Q 3003 3519 2839 3656
Q 2675 3794 2297 3794
L 1791 3794
L 1791 2597
L 2297 2597
z
M 1791 1766
L 1791 0
L 588 0
L 588 4666
L 2425 4666
Q 3347 4666 3776 4356
Q 4206 4047 4206 3378
Q 4206 2916 3982 2619
Q 3759 2322 3309 2181
Q 3556 2125 3751 1926
Q 3947 1728 4147 1325
L 4800 0
L 3519 0
L 2950 1159
Q 2778 1509 2601 1637
Q 2425 1766 2131 1766
L 1791 1766
z
" transform="scale(0.015625)"/>
      <path id="DejaVuSans-Bold-41" d="M 3419 850
L 1538 850
L 1241 0
L 31 0
L 1759 4666
L 3194 4666
L 4922 0
L 3713 0
L 3419 850
z
M 1838 1716
L 3116 1716
L 2478 3572
L 1838 1716
z
" transform="scale(0.015625)"/>
      <path id="DejaVuSans-Bold-54" d="M 31 4666
L 4331 4666
L 4331 3756
L 2784 3756
L 2784 0
L 1581 0
L 1581 3756
L 31 3756
L 31 4666
z
" transform="scale(0.015625)"/>
      <path id="DejaVuSans-Bold-49" d="M 588 4666
L 1791 4666
L 1791 0
L 588 0
L 588 4666
z
" transform="scale(0.015625)"/>
      <path id="DejaVuSans-Bold-4f" d="M 2719 3878
Q 2169 3878 1866 3472
Q 1563 3066 1563 2328
Q 1563 1594 1866 1187
Q 2169 781 2719 781
Q 3272 781 3575 1187
Q 3878 1594 3878 2328
Q 3878 3066 3575 3472
Q 3272 3878 2719 3878
z
M 2719 4750
Q 3844 4750 4481 4106
Q 5119 3463 5119 2328
Q 5119 1197 4481 553
Q 3844 -91 2719 -91
Q 1597 -91 958 553
Q 319 1197 319 2328
Q 319 3463 958 4106
Q 1597 4750 2719 4750
z
" transform="scale(0.015625)"/>
     </defs>
     <use xlink:href="#DejaVuSans-Bold-47"/>
     <use xlink:href="#DejaVuSans-Bold-45" x="82.080078"/>
     <use xlink:href="#DejaVuSans-Bold-4e" x="150.390625"/>
     <use xlink:href="#DejaVuSans-Bold-45" x="234.082031"/>
     <use xlink:href="#DejaVuSans-Bold-52" x="302.392578"/>
     <use xlink:href="#DejaVuSans-Bold-41" x="379.394531"/>
     <use xlink:href="#DejaVuSans-Bold-54" x="449.037109"/>
     <use xlink:href="#DejaVuSans-Bold-49" x="517.25"/>
     <use xlink:href="#DejaVuSans-Bold-4f" x="554.457031"/>
     <use xlink:href="#DejaVuSans-Bold-4e" x="639.466797"/>
    </g>
   </g>
   <g id="text_2">
    <!-- One trained network is reused throughout the flow. -->
    <g style="fill: #405366" transform="translate(109.926 14.67) scale(0.1 -0.1)">
     <defs>
      <path id="DejaVuSans-4f" d="M 2522 4238
Q 1834 4238 1429 3725
Q 1025 3213 1025 2328
Q 1025 1447 1429 934
Q 1834 422 2522 422
Q 3209 422 3611 934
Q 4013 1447 4013 2328
Q 4013 3213 3611 3725
Q 3209 4238 2522 4238
z
M 2522 4750
Q 3503 4750 4090 4092
Q 4678 3434 4678 2328
Q 4678 1225 4090 567
Q 3503 -91 2522 -91
Q 1538 -91 948 565
Q 359 1222 359 2328
Q 359 3434 948 4092
Q 1538 4750 2522 4750
z
" transform="scale(0.015625)"/>
      <path id="DejaVuSans-6e" d="M 3513 2113
L 3513 0
L 2938 0
L 2938 2094
Q 2938 2591 2744 2837
Q 2550 3084 2163 3084
Q 1697 3084 1428 2787
Q 1159 2491 1159 1978
L 1159 0
L 581 0
L 581 3500
L 1159 3500
L 1159 2956
Q 1366 3272 1645 3428
Q 1925 3584 2291 3584
Q 2894 3584 3203 3211
Q 3513 2838 3513 2113
z
" transform="scale(0.015625)"/>
      <path id="DejaVuSans-65" d="M 3597 1894
L 3597 1613
L 953 1613
Q 991 1019 1311 708
Q 1631 397 2203 397
Q 2534 397 2845 478
Q 3156 559 3463 722
L 3463 178
Q 3153 47 2828 -22
Q 2503 -91 2169 -91
Q 1331 -91 842 396
Q 353 884 353 1716
Q 353 2575 817 3079
Q 1281 3584 2069 3584
Q 2775 3584 3186 3129
Q 3597 2675 3597 1894
z
M 3022 2063
Q 3016 2534 2758 2815
Q 2500 3097 2075 3097
Q 1594 3097 1305 2825
Q 1016 2553 972 2059
L 3022 2063
z
" transform="scale(0.015625)"/>
      <path id="DejaVuSans-20" transform="scale(0.015625)"/>
      <path id="DejaVuSans-74" d="M 1172 4494
L 1172 3500
L 2356 3500
L 2356 3053
L 1172 3053
L 1172 1153
Q 1172 725 1289 603
Q 1406 481 1766 481
L 2356 481
L 2356 0
L 1766 0
Q 1100 0 847 248
Q 594 497 594 1153
L 594 3053
L 172 3053
L 172 3500
L 594 3500
L 594 4494
L 1172 4494
z
" transform="scale(0.015625)"/>
      <path id="DejaVuSans-72" d="M 2631 2963
Q 2534 3019 2420 3045
Q 2306 3072 2169 3072
Q 1681 3072 1420 2755
Q 1159 2438 1159 1844
L 1159 0
L 581 0
L 581 3500
L 1159 3500
L 1159 2956
Q 1341 3275 1631 3429
Q 1922 3584 2338 3584
Q 2397 3584 2469 3576
Q 2541 3569 2628 3553
L 2631 2963
z
" transform="scale(0.015625)"/>
      <path id="DejaVuSans-61" d="M 2194 1759
Q 1497 1759 1228 1600
Q 959 1441 959 1056
Q 959 750 1161 570
Q 1363 391 1709 391
Q 2188 391 2477 730
Q 2766 1069 2766 1631
L 2766 1759
L 2194 1759
z
M 3341 1997
L 3341 0
L 2766 0
L 2766 531
Q 2569 213 2275 61
Q 1981 -91 1556 -91
Q 1019 -91 701 211
Q 384 513 384 1019
Q 384 1609 779 1909
Q 1175 2209 1959 2209
L 2766 2209
L 2766 2266
Q 2766 2663 2505 2880
Q 2244 3097 1772 3097
Q 1472 3097 1187 3025
Q 903 2953 641 2809
L 641 3341
Q 956 3463 1253 3523
Q 1550 3584 1831 3584
Q 2591 3584 2966 3190
Q 3341 2797 3341 1997
z
" transform="scale(0.015625)"/>
      <path id="DejaVuSans-69" d="M 603 3500
L 1178 3500
L 1178 0
L 603 0
L 603 3500
z
M 603 4863
L 1178 4863
L 1178 4134
L 603 4134
L 603 4863
z
" transform="scale(0.015625)"/>
      <path id="DejaVuSans-64" d="M 2906 2969
L 2906 4863
L 3481 4863
L 3481 0
L 2906 0
L 2906 525
Q 2725 213 2448 61
Q 2172 -91 1784 -91
Q 1150 -91 751 415
Q 353 922 353 1747
Q 353 2572 751 3078
Q 1150 3584 1784 3584
Q 2172 3584 2448 3432
Q 2725 3281 2906 2969
z
M 947 1747
Q 947 1113 1208 752
Q 1469 391 1925 391
Q 2381 391 2643 752
Q 2906 1113 2906 1747
Q 2906 2381 2643 2742
Q 2381 3103 1925 3103
Q 1469 3103 1208 2742
Q 947 2381 947 1747
z
" transform="scale(0.015625)"/>
      <path id="DejaVuSans-77" d="M 269 3500
L 844 3500
L 1563 769
L 2278 3500
L 2956 3500
L 3675 769
L 4391 3500
L 4966 3500
L 4050 0
L 3372 0
L 2619 2869
L 1863 0
L 1184 0
L 269 3500
z
" transform="scale(0.015625)"/>
      <path id="DejaVuSans-6f" d="M 1959 3097
Q 1497 3097 1228 2736
Q 959 2375 959 1747
Q 959 1119 1226 758
Q 1494 397 1959 397
Q 2419 397 2687 759
Q 2956 1122 2956 1747
Q 2956 2369 2687 2733
Q 2419 3097 1959 3097
z
M 1959 3584
Q 2709 3584 3137 3096
Q 3566 2609 3566 1747
Q 3566 888 3137 398
Q 2709 -91 1959 -91
Q 1206 -91 779 398
Q 353 888 353 1747
Q 353 2609 779 3096
Q 1206 3584 1959 3584
z
" transform="scale(0.015625)"/>
      <path id="DejaVuSans-6b" d="M 581 4863
L 1159 4863
L 1159 1991
L 2875 3500
L 3609 3500
L 1753 1863
L 3688 0
L 2938 0
L 1159 1709
L 1159 0
L 581 0
L 581 4863
z
" transform="scale(0.015625)"/>
      <path id="DejaVuSans-73" d="M 2834 3397
L 2834 2853
Q 2591 2978 2328 3040
Q 2066 3103 1784 3103
Q 1356 3103 1142 2972
Q 928 2841 928 2578
Q 928 2378 1081 2264
Q 1234 2150 1697 2047
L 1894 2003
Q 2506 1872 2764 1633
Q 3022 1394 3022 966
Q 3022 478 2636 193
Q 2250 -91 1575 -91
Q 1294 -91 989 -36
Q 684 19 347 128
L 347 722
Q 666 556 975 473
Q 1284 391 1588 391
Q 1994 391 2212 530
Q 2431 669 2431 922
Q 2431 1156 2273 1281
Q 2116 1406 1581 1522
L 1381 1569
Q 847 1681 609 1914
Q 372 2147 372 2553
Q 372 3047 722 3315
Q 1072 3584 1716 3584
Q 2034 3584 2315 3537
Q 2597 3491 2834 3397
z
" transform="scale(0.015625)"/>
      <path id="DejaVuSans-75" d="M 544 1381
L 544 3500
L 1119 3500
L 1119 1403
Q 1119 906 1312 657
Q 1506 409 1894 409
Q 2359 409 2629 706
Q 2900 1003 2900 1516
L 2900 3500
L 3475 3500
L 3475 0
L 2900 0
L 2900 538
Q 2691 219 2414 64
Q 2138 -91 1772 -91
Q 1169 -91 856 284
Q 544 659 544 1381
z
M 1991 3584
L 1991 3584
z
" transform="scale(0.015625)"/>
      <path id="DejaVuSans-68" d="M 3513 2113
L 3513 0
L 2938 0
L 2938 2094
Q 2938 2591 2744 2837
Q 2550 3084 2163 3084
Q 1697 3084 1428 2787
Q 1159 2491 1159 1978
L 1159 0
L 581 0
L 581 4863
L 1159 4863
L 1159 2956
Q 1366 3272 1645 3428
Q 1925 3584 2291 3584
Q 2894 3584 3203 3211
Q 3513 2838 3513 2113
z
" transform="scale(0.015625)"/>
      <path id="DejaVuSans-67" d="M 2906 1791
Q 2906 2416 2648 2759
Q 2391 3103 1925 3103
Q 1463 3103 1205 2759
Q 947 2416 947 1791
Q 947 1169 1205 825
Q 1463 481 1925 481
Q 2391 481 2648 825
Q 2906 1169 2906 1791
z
M 3481 434
Q 3481 -459 3084 -895
Q 2688 -1331 1869 -1331
Q 1566 -1331 1297 -1286
Q 1028 -1241 775 -1147
L 775 -588
Q 1028 -725 1275 -790
Q 1522 -856 1778 -856
Q 2344 -856 2625 -561
Q 2906 -266 2906 331
L 2906 616
Q 2728 306 2450 153
Q 2172 0 1784 0
Q 1141 0 747 490
Q 353 981 353 1791
Q 353 2603 747 3093
Q 1141 3584 1784 3584
Q 2172 3584 2450 3431
Q 2728 3278 2906 2969
L 2906 3500
L 3481 3500
L 3481 434
z
" transform="scale(0.015625)"/>
      <path id="DejaVuSans-66" d="M 2375 4863
L 2375 4384
L 1825 4384
Q 1516 4384 1395 4259
Q 1275 4134 1275 3809
L 1275 3500
L 2222 3500
L 2222 3053
L 1275 3053
L 1275 0
L 697 0
L 697 3053
L 147 3053
L 147 3500
L 697 3500
L 697 3744
Q 697 4328 969 4595
Q 1241 4863 1831 4863
L 2375 4863
z
" transform="scale(0.015625)"/>
      <path id="DejaVuSans-6c" d="M 603 4863
L 1178 4863
L 1178 0
L 603 0
L 603 4863
z
" transform="scale(0.015625)"/>
      <path id="DejaVuSans-2e" d="M 684 794
L 1344 794
L 1344 0
L 684 0
L 684 794
z
" transform="scale(0.015625)"/>
     </defs>
     <use xlink:href="#DejaVuSans-4f"/>
     <use xlink:href="#DejaVuSans-6e" x="78.710938"/>
     <use xlink:href="#DejaVuSans-65" x="142.089844"/>
     <use xlink:href="#DejaVuSans-20" x="203.613281"/>
     <use xlink:href="#DejaVuSans-74" x="235.400391"/>
     <use xlink:href="#DejaVuSans-72" x="274.609375"/>
     <use xlink:href="#DejaVuSans-61" x="315.722656"/>
     <use xlink:href="#DejaVuSans-69" x="377.001953"/>
     <use xlink:href="#DejaVuSans-6e" x="404.785156"/>
     <use xlink:href="#DejaVuSans-65" x="468.164062"/>
     <use xlink:href="#DejaVuSans-64" x="529.6875"/>
     <use xlink:href="#DejaVuSans-20" x="593.164062"/>
     <use xlink:href="#DejaVuSans-6e" x="624.951172"/>
     <use xlink:href="#DejaVuSans-65" x="688.330078"/>
     <use xlink:href="#DejaVuSans-74" x="749.853516"/>
     <use xlink:href="#DejaVuSans-77" x="789.0625"/>
     <use xlink:href="#DejaVuSans-6f" x="870.849609"/>
     <use xlink:href="#DejaVuSans-72" x="932.03125"/>
     <use xlink:href="#DejaVuSans-6b" x="973.144531"/>
     <use xlink:href="#DejaVuSans-20" x="1031.054688"/>
     <use xlink:href="#DejaVuSans-69" x="1062.841797"/>
     <use xlink:href="#DejaVuSans-73" x="1090.625"/>
     <use xlink:href="#DejaVuSans-20" x="1142.724609"/>
     <use xlink:href="#DejaVuSans-72" x="1174.511719"/>
     <use xlink:href="#DejaVuSans-65" x="1213.375"/>
     <use xlink:href="#DejaVuSans-75" x="1274.898438"/>
     <use xlink:href="#DejaVuSans-73" x="1338.277344"/>
     <use xlink:href="#DejaVuSans-65" x="1390.376953"/>
     <use xlink:href="#DejaVuSans-64" x="1451.900391"/>
     <use xlink:href="#DejaVuSans-20" x="1515.376953"/>
     <use xlink:href="#DejaVuSans-74" x="1547.164062"/>
     <use xlink:href="#DejaVuSans-68" x="1586.373047"/>
     <use xlink:href="#DejaVuSans-72" x="1649.751953"/>
     <use xlink:href="#DejaVuSans-6f" x="1688.615234"/>
     <use xlink:href="#DejaVuSans-75" x="1749.796875"/>
     <use xlink:href="#DejaVuSans-67" x="1813.175781"/>
     <use xlink:href="#DejaVuSans-68" x="1876.652344"/>
     <use xlink:href="#DejaVuSans-6f" x="1940.03125"/>
     <use xlink:href="#DejaVuSans-75" x="2001.212891"/>
     <use xlink:href="#DejaVuSans-74" x="2064.591797"/>
     <use xlink:href="#DejaVuSans-20" x="2103.800781"/>
     <use xlink:href="#DejaVuSans-74" x="2135.587891"/>
     <use xlink:href="#DejaVuSans-68" x="2174.796875"/>
     <use xlink:href="#DejaVuSans-65" x="2238.175781"/>
     <use xlink:href="#DejaVuSans-20" x="2299.699219"/>
     <use xlink:href="#DejaVuSans-66" x="2331.486328"/>
     <use xlink:href="#DejaVuSans-6c" x="2366.691406"/>
     <use xlink:href="#DejaVuSans-6f" x="2394.474609"/>
     <use xlink:href="#DejaVuSans-77" x="2455.65625"/>
     <use xlink:href="#DejaVuSans-2e" x="2528.318359"/>
    </g>
   </g>
   <g id="text_3">
    <!-- Atomic input -->
    <g transform="translate(23.607462 41.226675) scale(0.1 -0.1)">
     <defs>
      <path id="DejaVuSans-41" d="M 2188 4044
L 1331 1722
L 3047 1722
L 2188 4044
z
M 1831 4666
L 2547 4666
L 4325 0
L 3669 0
L 3244 1197
L 1141 1197
L 716 0
L 50 0
L 1831 4666
z
" transform="scale(0.015625)"/>
      <path id="DejaVuSans-6d" d="M 3328 2828
Q 3544 3216 3844 3400
Q 4144 3584 4550 3584
Q 5097 3584 5394 3201
Q 5691 2819 5691 2113
L 5691 0
L 5113 0
L 5113 2094
Q 5113 2597 4934 2840
Q 4756 3084 4391 3084
Q 3944 3084 3684 2787
Q 3425 2491 3425 1978
L 3425 0
L 2847 0
L 2847 2094
Q 2847 2600 2669 2842
Q 2491 3084 2119 3084
Q 1678 3084 1418 2786
Q 1159 2488 1159 1978
L 1159 0
L 581 0
L 581 3500
L 1159 3500
L 1159 2956
Q 1356 3278 1631 3431
Q 1906 3584 2284 3584
Q 2666 3584 2933 3390
Q 3200 3197 3328 2828
z
" transform="scale(0.015625)"/>
      <path id="DejaVuSans-63" d="M 3122 3366
L 3122 2828
Q 2878 2963 2633 3030
Q 2388 3097 2138 3097
Q 1578 3097 1268 2742
Q 959 2388 959 1747
Q 959 1106 1268 751
Q 1578 397 2138 397
Q 2388 397 2633 464
Q 2878 531 3122 666
L 3122 134
Q 2881 22 2623 -34
Q 2366 -91 2075 -91
Q 1284 -91 818 406
Q 353 903 353 1747
Q 353 2603 823 3093
Q 1294 3584 2113 3584
Q 2378 3584 2631 3529
Q 2884 3475 3122 3366
z
" transform="scale(0.015625)"/>
      <path id="DejaVuSans-70" d="M 1159 525
L 1159 -1331
L 581 -1331
L 581 3500
L 1159 3500
L 1159 2969
Q 1341 3281 1617 3432
Q 1894 3584 2278 3584
Q 2916 3584 3314 3078
Q 3713 2572 3713 1747
Q 3713 922 3314 415
Q 2916 -91 2278 -91
Q 1894 -91 1617 61
Q 1341 213 1159 525
z
M 3116 1747
Q 3116 2381 2855 2742
Q 2594 3103 2138 3103
Q 1681 3103 1420 2742
Q 1159 2381 1159 1747
Q 1159 1113 1420 752
Q 1681 391 2138 391
Q 2594 391 2855 752
Q 3116 1113 3116 1747
z
" transform="scale(0.015625)"/>
     </defs>
     <use xlink:href="#DejaVuSans-41"/>
     <use xlink:href="#DejaVuSans-74" x="66.658203"/>
     <use xlink:href="#DejaVuSans-6f" x="105.867188"/>
     <use xlink:href="#DejaVuSans-6d" x="167.048828"/>
     <use xlink:href="#DejaVuSans-69" x="264.460938"/>
     <use xlink:href="#DejaVuSans-63" x="292.244141"/>
     <use xlink:href="#DejaVuSans-20" x="347.224609"/>
     <use xlink:href="#DejaVuSans-69" x="379.011719"/>
     <use xlink:href="#DejaVuSans-6e" x="406.794922"/>
     <use xlink:href="#DejaVuSans-70" x="470.173828"/>
     <use xlink:href="#DejaVuSans-75" x="533.650391"/>
     <use xlink:href="#DejaVuSans-74" x="597.029297"/>
    </g>
    <!-- elements -->
    <g transform="translate(32.195744 53.944175) scale(0.1 -0.1)">
     <use xlink:href="#DejaVuSans-65"/>
     <use xlink:href="#DejaVuSans-6c" x="61.523438"/>
     <use xlink:href="#DejaVuSans-65" x="89.306641"/>
     <use xlink:href="#DejaVuSans-6d" x="150.830078"/>
     <use xlink:href="#DejaVuSans-65" x="248.242188"/>
     <use xlink:href="#DejaVuSans-6e" x="309.765625"/>
     <use xlink:href="#DejaVuSans-74" x="373.144531"/>
     <use xlink:href="#DejaVuSans-73" x="412.353516"/>
    </g>
    <!-- charge and spin -->
    <g transform="translate(15.295744 66.661675) scale(0.1 -0.1)">
     <use xlink:href="#DejaVuSans-63"/>
     <use xlink:href="#DejaVuSans-68" x="54.980469"/>
     <use xlink:href="#DejaVuSans-61" x="118.359375"/>
     <use xlink:href="#DejaVuSans-72" x="179.638672"/>
     <use xlink:href="#DejaVuSans-67" x="219.001953"/>
     <use xlink:href="#DejaVuSans-65" x="282.478516"/>
     <use xlink:href="#DejaVuSans-20" x="344.001953"/>
     <use xlink:href="#DejaVuSans-61" x="375.789062"/>
     <use xlink:href="#DejaVuSans-6e" x="437.068359"/>
     <use xlink:href="#DejaVuSans-64" x="500.447266"/>
     <use xlink:href="#DejaVuSans-20" x="563.923828"/>
     <use xlink:href="#DejaVuSans-73" x="595.710938"/>
     <use xlink:href="#DejaVuSans-70" x="647.810547"/>
     <use xlink:href="#DejaVuSans-69" x="711.287109"/>
     <use xlink:href="#DejaVuSans-6e" x="739.070312"/>
    </g>
   </g>
   <g id="text_4">
    <!-- Latent spring source -->
    <g transform="translate(124.714281 47.585425) scale(0.1 -0.1)">
     <defs>
      <path id="DejaVuSans-4c" d="M 628 4666
L 1259 4666
L 1259 531
L 3531 531
L 3531 0
L 628 0
L 628 4666
z
" transform="scale(0.015625)"/>
     </defs>
     <use xlink:href="#DejaVuSans-4c"/>
     <use xlink:href="#DejaVuSans-61" x="55.712891"/>
     <use xlink:href="#DejaVuSans-74" x="116.992188"/>
     <use xlink:href="#DejaVuSans-65" x="156.201172"/>
     <use xlink:href="#DejaVuSans-6e" x="217.724609"/>
     <use xlink:href="#DejaVuSans-74" x="281.103516"/>
     <use xlink:href="#DejaVuSans-20" x="320.3125"/>
     <use xlink:href="#DejaVuSans-73" x="352.099609"/>
     <use xlink:href="#DejaVuSans-70" x="404.199219"/>
     <use xlink:href="#DejaVuSans-72" x="467.675781"/>
     <use xlink:href="#DejaVuSans-69" x="508.789062"/>
     <use xlink:href="#DejaVuSans-6e" x="536.572266"/>
     <use xlink:href="#DejaVuSans-67" x="599.951172"/>
     <use xlink:href="#DejaVuSans-20" x="663.427734"/>
     <use xlink:href="#DejaVuSans-73" x="695.214844"/>
     <use xlink:href="#DejaVuSans-6f" x="747.314453"/>
     <use xlink:href="#DejaVuSans-75" x="808.496094"/>
     <use xlink:href="#DejaVuSans-72" x="871.875"/>
     <use xlink:href="#DejaVuSans-63" x="910.738281"/>
     <use xlink:href="#DejaVuSans-65" x="965.71875"/>
    </g>
    <!-- random scaffold -->
    <g transform="translate(135.533812 60.302925) scale(0.1 -0.1)">
     <use xlink:href="#DejaVuSans-72"/>
     <use xlink:href="#DejaVuSans-61" x="41.113281"/>
     <use xlink:href="#DejaVuSans-6e" x="102.392578"/>
     <use xlink:href="#DejaVuSans-64" x="165.771484"/>
     <use xlink:href="#DejaVuSans-6f" x="229.248047"/>
     <use xlink:href="#DejaVuSans-6d" x="290.429688"/>
     <use xlink:href="#DejaVuSans-20" x="387.841797"/>
     <use xlink:href="#DejaVuSans-73" x="419.628906"/>
     <use xlink:href="#DejaVuSans-63" x="471.728516"/>
     <use xlink:href="#DejaVuSans-61" x="526.708984"/>
     <use xlink:href="#DejaVuSans-66" x="587.988281"/>
     <use xlink:href="#DejaVuSans-66" x="623.193359"/>
     <use xlink:href="#DejaVuSans-6f" x="658.398438"/>
     <use xlink:href="#DejaVuSans-6c" x="719.580078"/>
     <use xlink:href="#DejaVuSans-64" x="747.363281"/>
    </g>
   </g>
   <g id="text_5">
    <!-- Flow updates -->
    <g transform="translate(287.8518 41.226675) scale(0.1 -0.1)">
     <defs>
      <path id="DejaVuSans-46" d="M 628 4666
L 3309 4666
L 3309 4134
L 1259 4134
L 1259 2759
L 3109 2759
L 3109 2228
L 1259 2228
L 1259 0
L 628 0
L 628 4666
z
" transform="scale(0.015625)"/>
     </defs>
     <use xlink:href="#DejaVuSans-46"/>
     <use xlink:href="#DejaVuSans-6c" x="57.519531"/>
     <use xlink:href="#DejaVuSans-6f" x="85.302734"/>
     <use xlink:href="#DejaVuSans-77" x="146.484375"/>
     <use xlink:href="#DejaVuSans-20" x="228.271484"/>
     <use xlink:href="#DejaVuSans-75" x="260.058594"/>
     <use xlink:href="#DejaVuSans-70" x="323.4375"/>
     <use xlink:href="#DejaVuSans-64" x="386.914062"/>
     <use xlink:href="#DejaVuSans-61" x="450.390625"/>
     <use xlink:href="#DejaVuSans-74" x="511.669922"/>
     <use xlink:href="#DejaVuSans-65" x="550.878906"/>
     <use xlink:href="#DejaVuSans-73" x="612.402344"/>
    </g>
    <!-- provisional geometry -->
    <g transform="translate(268.055706 53.944175) scale(0.1 -0.1)">
     <defs>
      <path id="DejaVuSans-76" d="M 191 3500
L 800 3500
L 1894 563
L 2988 3500
L 3597 3500
L 2284 0
L 1503 0
L 191 3500
z
" transform="scale(0.015625)"/>
      <path id="DejaVuSans-79" d="M 2059 -325
Q 1816 -950 1584 -1140
Q 1353 -1331 966 -1331
L 506 -1331
L 506 -850
L 844 -850
Q 1081 -850 1212 -737
Q 1344 -625 1503 -206
L 1606 56
L 191 3500
L 800 3500
L 1894 763
L 2988 3500
L 3597 3500
L 2059 -325
z
" transform="scale(0.015625)"/>
     </defs>
     <use xlink:href="#DejaVuSans-70"/>
     <use xlink:href="#DejaVuSans-72" x="63.476562"/>
     <use xlink:href="#DejaVuSans-6f" x="102.339844"/>
     <use xlink:href="#DejaVuSans-76" x="163.521484"/>
     <use xlink:href="#DejaVuSans-69" x="222.701172"/>
     <use xlink:href="#DejaVuSans-73" x="250.484375"/>
     <use xlink:href="#DejaVuSans-69" x="302.583984"/>
     <use xlink:href="#DejaVuSans-6f" x="330.367188"/>
     <use xlink:href="#DejaVuSans-6e" x="391.548828"/>
     <use xlink:href="#DejaVuSans-61" x="454.927734"/>
     <use xlink:href="#DejaVuSans-6c" x="516.207031"/>
     <use xlink:href="#DejaVuSans-20" x="543.990234"/>
     <use xlink:href="#DejaVuSans-67" x="575.777344"/>
     <use xlink:href="#DejaVuSans-65" x="639.253906"/>
     <use xlink:href="#DejaVuSans-6f" x="700.777344"/>
     <use xlink:href="#DejaVuSans-6d" x="761.958984"/>
     <use xlink:href="#DejaVuSans-65" x="859.371094"/>
     <use xlink:href="#DejaVuSans-74" x="920.894531"/>
     <use xlink:href="#DejaVuSans-72" x="960.103516"/>
     <use xlink:href="#DejaVuSans-79" x="1001.216797"/>
    </g>
    <!-- then refined movement -->
    <g transform="translate(261.894769 66.661675) scale(0.1 -0.1)">
     <use xlink:href="#DejaVuSans-74"/>
     <use xlink:href="#DejaVuSans-68" x="39.208984"/>
     <use xlink:href="#DejaVuSans-65" x="102.587891"/>
     <use xlink:href="#DejaVuSans-6e" x="164.111328"/>
     <use xlink:href="#DejaVuSans-20" x="227.490234"/>
     <use xlink:href="#DejaVuSans-72" x="259.277344"/>
     <use xlink:href="#DejaVuSans-65" x="298.140625"/>
     <use xlink:href="#DejaVuSans-66" x="359.664062"/>
     <use xlink:href="#DejaVuSans-69" x="394.869141"/>
     <use xlink:href="#DejaVuSans-6e" x="422.652344"/>
     <use xlink:href="#DejaVuSans-65" x="486.03125"/>
     <use xlink:href="#DejaVuSans-64" x="547.554688"/>
     <use xlink:href="#DejaVuSans-20" x="611.03125"/>
     <use xlink:href="#DejaVuSans-6d" x="642.818359"/>
     <use xlink:href="#DejaVuSans-6f" x="740.230469"/>
     <use xlink:href="#DejaVuSans-76" x="801.412109"/>
     <use xlink:href="#DejaVuSans-65" x="860.591797"/>
     <use xlink:href="#DejaVuSans-6d" x="922.115234"/>
     <use xlink:href="#DejaVuSans-65" x="1019.527344"/>
     <use xlink:href="#DejaVuSans-6e" x="1081.050781"/>
     <use xlink:href="#DejaVuSans-74" x="1144.429688"/>
    </g>
   </g>
   <g id="text_6">
    <!-- 3D coordinates -->
    <g transform="translate(428.71305 47.585425) scale(0.1 -0.1)">
     <defs>
      <path id="DejaVuSans-33" d="M 2597 2516
Q 3050 2419 3304 2112
Q 3559 1806 3559 1356
Q 3559 666 3084 287
Q 2609 -91 1734 -91
Q 1441 -91 1130 -33
Q 819 25 488 141
L 488 750
Q 750 597 1062 519
Q 1375 441 1716 441
Q 2309 441 2620 675
Q 2931 909 2931 1356
Q 2931 1769 2642 2001
Q 2353 2234 1838 2234
L 1294 2234
L 1294 2753
L 1863 2753
Q 2328 2753 2575 2939
Q 2822 3125 2822 3475
Q 2822 3834 2567 4026
Q 2313 4219 1838 4219
Q 1578 4219 1281 4162
Q 984 4106 628 3988
L 628 4550
Q 988 4650 1302 4700
Q 1616 4750 1894 4750
Q 2613 4750 3031 4423
Q 3450 4097 3450 3541
Q 3450 3153 3228 2886
Q 3006 2619 2597 2516
z
" transform="scale(0.015625)"/>
      <path id="DejaVuSans-44" d="M 1259 4147
L 1259 519
L 2022 519
Q 2988 519 3436 956
Q 3884 1394 3884 2338
Q 3884 3275 3436 3711
Q 2988 4147 2022 4147
L 1259 4147
z
M 628 4666
L 1925 4666
Q 3281 4666 3915 4102
Q 4550 3538 4550 2338
Q 4550 1131 3912 565
Q 3275 0 1925 0
L 628 0
L 628 4666
z
" transform="scale(0.015625)"/>
     </defs>
     <use xlink:href="#DejaVuSans-33"/>
     <use xlink:href="#DejaVuSans-44" x="63.623047"/>
     <use xlink:href="#DejaVuSans-20" x="140.625"/>
     <use xlink:href="#DejaVuSans-63" x="172.412109"/>
     <use xlink:href="#DejaVuSans-6f" x="227.392578"/>
     <use xlink:href="#DejaVuSans-6f" x="288.574219"/>
     <use xlink:href="#DejaVuSans-72" x="349.755859"/>
     <use xlink:href="#DejaVuSans-64" x="389.119141"/>
     <use xlink:href="#DejaVuSans-69" x="452.595703"/>
     <use xlink:href="#DejaVuSans-6e" x="480.378906"/>
     <use xlink:href="#DejaVuSans-61" x="543.757812"/>
     <use xlink:href="#DejaVuSans-74" x="605.037109"/>
     <use xlink:href="#DejaVuSans-65" x="644.246094"/>
     <use xlink:href="#DejaVuSans-73" x="705.769531"/>
    </g>
    <!-- raw generator output -->
    <g transform="translate(413.03805 60.302925) scale(0.1 -0.1)">
     <use xlink:href="#DejaVuSans-72"/>
     <use xlink:href="#DejaVuSans-61" x="41.113281"/>
     <use xlink:href="#DejaVuSans-77" x="102.392578"/>
     <use xlink:href="#DejaVuSans-20" x="184.179688"/>
     <use xlink:href="#DejaVuSans-67" x="215.966797"/>
     <use xlink:href="#DejaVuSans-65" x="279.443359"/>
     <use xlink:href="#DejaVuSans-6e" x="340.966797"/>
     <use xlink:href="#DejaVuSans-65" x="404.345703"/>
     <use xlink:href="#DejaVuSans-72" x="465.869141"/>
     <use xlink:href="#DejaVuSans-61" x="506.982422"/>
     <use xlink:href="#DejaVuSans-74" x="568.261719"/>
     <use xlink:href="#DejaVuSans-6f" x="607.470703"/>
     <use xlink:href="#DejaVuSans-72" x="668.652344"/>
     <use xlink:href="#DejaVuSans-20" x="709.765625"/>
     <use xlink:href="#DejaVuSans-6f" x="741.552734"/>
     <use xlink:href="#DejaVuSans-75" x="802.734375"/>
     <use xlink:href="#DejaVuSans-74" x="866.113281"/>
     <use xlink:href="#DejaVuSans-70" x="905.322266"/>
     <use xlink:href="#DejaVuSans-75" x="968.798828"/>
     <use xlink:href="#DejaVuSans-74" x="1032.177734"/>
    </g>
   </g>
   <g id="text_7">
    <!-- PHYSICAL LEARNING -->
    <g style="fill: #7b4928" transform="translate(6.732 109.3968) scale(0.12 -0.12)">
     <defs>
      <path id="DejaVuSans-Bold-50" d="M 588 4666
L 2584 4666
Q 3475 4666 3951 4270
Q 4428 3875 4428 3144
Q 4428 2409 3951 2014
Q 3475 1619 2584 1619
L 1791 1619
L 1791 0
L 588 0
L 588 4666
z
M 1791 3794
L 1791 2491
L 2456 2491
Q 2806 2491 2997 2661
Q 3188 2831 3188 3144
Q 3188 3456 2997 3625
Q 2806 3794 2456 3794
L 1791 3794
z
" transform="scale(0.015625)"/>
      <path id="DejaVuSans-Bold-48" d="M 588 4666
L 1791 4666
L 1791 2888
L 3566 2888
L 3566 4666
L 4769 4666
L 4769 0
L 3566 0
L 3566 1978
L 1791 1978
L 1791 0
L 588 0
L 588 4666
z
" transform="scale(0.015625)"/>
      <path id="DejaVuSans-Bold-59" d="M -63 4666
L 1253 4666
L 2316 3003
L 3378 4666
L 4697 4666
L 2919 1966
L 2919 0
L 1716 0
L 1716 1966
L -63 4666
z
" transform="scale(0.015625)"/>
      <path id="DejaVuSans-Bold-53" d="M 3834 4519
L 3834 3531
Q 3450 3703 3084 3790
Q 2719 3878 2394 3878
Q 1963 3878 1756 3759
Q 1550 3641 1550 3391
Q 1550 3203 1689 3098
Q 1828 2994 2194 2919
L 2706 2816
Q 3484 2659 3812 2340
Q 4141 2022 4141 1434
Q 4141 663 3683 286
Q 3225 -91 2284 -91
Q 1841 -91 1394 -6
Q 947 78 500 244
L 500 1259
Q 947 1022 1364 901
Q 1781 781 2169 781
Q 2563 781 2772 912
Q 2981 1044 2981 1288
Q 2981 1506 2839 1625
Q 2697 1744 2272 1838
L 1806 1941
Q 1106 2091 782 2419
Q 459 2747 459 3303
Q 459 4000 909 4375
Q 1359 4750 2203 4750
Q 2588 4750 2994 4692
Q 3400 4634 3834 4519
z
" transform="scale(0.015625)"/>
      <path id="DejaVuSans-Bold-43" d="M 4288 256
Q 3956 84 3597 -3
Q 3238 -91 2847 -91
Q 1681 -91 1000 561
Q 319 1213 319 2328
Q 319 3447 1000 4098
Q 1681 4750 2847 4750
Q 3238 4750 3597 4662
Q 3956 4575 4288 4403
L 4288 3438
Q 3953 3666 3628 3772
Q 3303 3878 2944 3878
Q 2300 3878 1931 3465
Q 1563 3053 1563 2328
Q 1563 1606 1931 1193
Q 2300 781 2944 781
Q 3303 781 3628 887
Q 3953 994 4288 1222
L 4288 256
z
" transform="scale(0.015625)"/>
      <path id="DejaVuSans-Bold-4c" d="M 588 4666
L 1791 4666
L 1791 909
L 3903 909
L 3903 0
L 588 0
L 588 4666
z
" transform="scale(0.015625)"/>
      <path id="DejaVuSans-Bold-20" transform="scale(0.015625)"/>
     </defs>
     <use xlink:href="#DejaVuSans-Bold-50"/>
     <use xlink:href="#DejaVuSans-Bold-48" x="73.291016"/>
     <use xlink:href="#DejaVuSans-Bold-59" x="156.982422"/>
     <use xlink:href="#DejaVuSans-Bold-53" x="229.394531"/>
     <use xlink:href="#DejaVuSans-Bold-49" x="301.416016"/>
     <use xlink:href="#DejaVuSans-Bold-43" x="338.623047"/>
     <use xlink:href="#DejaVuSans-Bold-41" x="412.011719"/>
     <use xlink:href="#DejaVuSans-Bold-4c" x="489.404297"/>
     <use xlink:href="#DejaVuSans-Bold-20" x="553.125"/>
     <use xlink:href="#DejaVuSans-Bold-4c" x="587.939453"/>
     <use xlink:href="#DejaVuSans-Bold-45" x="651.660156"/>
     <use xlink:href="#DejaVuSans-Bold-41" x="719.970703"/>
     <use xlink:href="#DejaVuSans-Bold-52" x="797.363281"/>
     <use xlink:href="#DejaVuSans-Bold-4e" x="874.365234"/>
     <use xlink:href="#DejaVuSans-Bold-49" x="958.056641"/>
     <use xlink:href="#DejaVuSans-Bold-4e" x="995.263672"/>
     <use xlink:href="#DejaVuSans-Bold-47" x="1078.955078"/>
    </g>
   </g>
   <g id="text_8">
    <!-- Train matched copies; combine their updates. -->
    <g style="fill: #405366" transform="translate(170.784 109.3968) scale(0.1 -0.1)">
     <defs>
      <path id="DejaVuSans-54" d="M -19 4666
L 3928 4666
L 3928 4134
L 2272 4134
L 2272 0
L 1638 0
L 1638 4134
L -19 4134
L -19 4666
z
" transform="scale(0.015625)"/>
      <path id="DejaVuSans-3b" d="M 750 3309
L 1409 3309
L 1409 2516
L 750 2516
L 750 3309
z
M 750 794
L 1409 794
L 1409 256
L 897 -744
L 494 -744
L 750 256
L 750 794
z
" transform="scale(0.015625)"/>
      <path id="DejaVuSans-62" d="M 3116 1747
Q 3116 2381 2855 2742
Q 2594 3103 2138 3103
Q 1681 3103 1420 2742
Q 1159 2381 1159 1747
Q 1159 1113 1420 752
Q 1681 391 2138 391
Q 2594 391 2855 752
Q 3116 1113 3116 1747
z
M 1159 2969
Q 1341 3281 1617 3432
Q 1894 3584 2278 3584
Q 2916 3584 3314 3078
Q 3713 2572 3713 1747
Q 3713 922 3314 415
Q 2916 -91 2278 -91
Q 1894 -91 1617 61
Q 1341 213 1159 525
L 1159 0
L 581 0
L 581 4863
L 1159 4863
L 1159 2969
z
" transform="scale(0.015625)"/>
     </defs>
     <use xlink:href="#DejaVuSans-54"/>
     <use xlink:href="#DejaVuSans-72" x="46.333984"/>
     <use xlink:href="#DejaVuSans-61" x="87.447266"/>
     <use xlink:href="#DejaVuSans-69" x="148.726562"/>
     <use xlink:href="#DejaVuSans-6e" x="176.509766"/>
     <use xlink:href="#DejaVuSans-20" x="239.888672"/>
     <use xlink:href="#DejaVuSans-6d" x="271.675781"/>
     <use xlink:href="#DejaVuSans-61" x="369.087891"/>
     <use xlink:href="#DejaVuSans-74" x="430.367188"/>
     <use xlink:href="#DejaVuSans-63" x="469.576172"/>
     <use xlink:href="#DejaVuSans-68" x="524.556641"/>
     <use xlink:href="#DejaVuSans-65" x="587.935547"/>
     <use xlink:href="#DejaVuSans-64" x="649.458984"/>
     <use xlink:href="#DejaVuSans-20" x="712.935547"/>
     <use xlink:href="#DejaVuSans-63" x="744.722656"/>
     <use xlink:href="#DejaVuSans-6f" x="799.703125"/>
     <use xlink:href="#DejaVuSans-70" x="860.884766"/>
     <use xlink:href="#DejaVuSans-69" x="924.361328"/>
     <use xlink:href="#DejaVuSans-65" x="952.144531"/>
     <use xlink:href="#DejaVuSans-73" x="1013.667969"/>
     <use xlink:href="#DejaVuSans-3b" x="1065.767578"/>
     <use xlink:href="#DejaVuSans-20" x="1099.458984"/>
     <use xlink:href="#DejaVuSans-63" x="1131.246094"/>
     <use xlink:href="#DejaVuSans-6f" x="1186.226562"/>
     <use xlink:href="#DejaVuSans-6d" x="1247.408203"/>
     <use xlink:href="#DejaVuSans-62" x="1344.820312"/>
     <use xlink:href="#DejaVuSans-69" x="1408.296875"/>
     <use xlink:href="#DejaVuSans-6e" x="1436.080078"/>
     <use xlink:href="#DejaVuSans-65" x="1499.458984"/>
     <use xlink:href="#DejaVuSans-20" x="1560.982422"/>
     <use xlink:href="#DejaVuSans-74" x="1592.769531"/>
     <use xlink:href="#DejaVuSans-68" x="1631.978516"/>
     <use xlink:href="#DejaVuSans-65" x="1695.357422"/>
     <use xlink:href="#DejaVuSans-69" x="1756.880859"/>
     <use xlink:href="#DejaVuSans-72" x="1784.664062"/>
     <use xlink:href="#DejaVuSans-20" x="1825.777344"/>
     <use xlink:href="#DejaVuSans-75" x="1857.564453"/>
     <use xlink:href="#DejaVuSans-70" x="1920.943359"/>
     <use xlink:href="#DejaVuSans-64" x="1984.419922"/>
     <use xlink:href="#DejaVuSans-61" x="2047.896484"/>
     <use xlink:href="#DejaVuSans-74" x="2109.175781"/>
     <use xlink:href="#DejaVuSans-65" x="2148.384766"/>
     <use xlink:href="#DejaVuSans-73" x="2209.908203"/>
     <use xlink:href="#DejaVuSans-2e" x="2262.007812"/>
    </g>
   </g>
   <g id="text_9">
    <!-- Base generator -->
    <g transform="translate(16.962931 161.098825) scale(0.1 -0.1)">
     <defs>
      <path id="DejaVuSans-42" d="M 1259 2228
L 1259 519
L 2272 519
Q 2781 519 3026 730
Q 3272 941 3272 1375
Q 3272 1813 3026 2020
Q 2781 2228 2272 2228
L 1259 2228
z
M 1259 4147
L 1259 2741
L 2194 2741
Q 2656 2741 2882 2914
Q 3109 3088 3109 3444
Q 3109 3797 2882 3972
Q 2656 4147 2194 4147
L 1259 4147
z
M 628 4666
L 2241 4666
Q 2963 4666 3353 4366
Q 3744 4066 3744 3513
Q 3744 3084 3544 2831
Q 3344 2578 2956 2516
Q 3422 2416 3680 2098
Q 3938 1781 3938 1306
Q 3938 681 3513 340
Q 3088 0 2303 0
L 628 0
L 628 4666
z
" transform="scale(0.015625)"/>
     </defs>
     <use xlink:href="#DejaVuSans-42"/>
     <use xlink:href="#DejaVuSans-61" x="68.603516"/>
     <use xlink:href="#DejaVuSans-73" x="129.882812"/>
     <use xlink:href="#DejaVuSans-65" x="181.982422"/>
     <use xlink:href="#DejaVuSans-20" x="243.505859"/>
     <use xlink:href="#DejaVuSans-67" x="275.292969"/>
     <use xlink:href="#DejaVuSans-65" x="338.769531"/>
     <use xlink:href="#DejaVuSans-6e" x="400.292969"/>
     <use xlink:href="#DejaVuSans-65" x="463.671875"/>
     <use xlink:href="#DejaVuSans-72" x="525.195312"/>
     <use xlink:href="#DejaVuSans-61" x="566.308594"/>
     <use xlink:href="#DejaVuSans-74" x="627.587891"/>
     <use xlink:href="#DejaVuSans-6f" x="666.796875"/>
     <use xlink:href="#DejaVuSans-72" x="727.978516"/>
    </g>
    <!-- $\theta_{\mathrm{base}}$ -->
    <g transform="translate(43.8684 173.816325) scale(0.1 -0.1)">
     <defs>
      <path id="DejaVuSans-Oblique-3b8" d="M 2913 2219
L 925 2219
Q 791 1284 928 888
Q 1100 400 1566 400
Q 2034 400 2391 891
Q 2703 1322 2913 2219
z
M 3009 2750
Q 3094 3638 2984 3950
Q 2813 4444 2353 4444
Q 1875 4444 1525 3956
Q 1250 3563 1034 2750
L 3009 2750
z
M 2444 4913
Q 3194 4913 3494 4250
Q 3794 3591 3566 2422
Q 3341 1256 2781 594
Q 2225 -72 1475 -72
Q 722 -72 425 594
Q 128 1256 353 2422
Q 581 3591 1134 4250
Q 1691 4913 2444 4913
z
" transform="scale(0.015625)"/>
     </defs>
     <use xlink:href="#DejaVuSans-Oblique-3b8" transform="translate(0 0.234375)"/>
     <use xlink:href="#DejaVuSans-62" transform="translate(61.181641 -16.171875) scale(0.7)"/>
     <use xlink:href="#DejaVuSans-61" transform="translate(105.615234 -16.171875) scale(0.7)"/>
     <use xlink:href="#DejaVuSans-73" transform="translate(148.510742 -16.171875) scale(0.7)"/>
     <use xlink:href="#DejaVuSans-65" transform="translate(184.980469 -16.171875) scale(0.7)"/>
    </g>
   </g>
   <g id="text_10">
    <!-- Force-shifted targets -->
    <g transform="translate(131.715269 139.084975) scale(0.1 -0.1)">
     <defs>
      <path id="DejaVuSans-2d" d="M 313 2009
L 1997 2009
L 1997 1497
L 313 1497
L 313 2009
z
" transform="scale(0.015625)"/>
     </defs>
     <use xlink:href="#DejaVuSans-46"/>
     <use xlink:href="#DejaVuSans-6f" x="53.894531"/>
     <use xlink:href="#DejaVuSans-72" x="115.076172"/>
     <use xlink:href="#DejaVuSans-63" x="153.939453"/>
     <use xlink:href="#DejaVuSans-65" x="208.919922"/>
     <use xlink:href="#DejaVuSans-2d" x="270.443359"/>
     <use xlink:href="#DejaVuSans-73" x="306.527344"/>
     <use xlink:href="#DejaVuSans-68" x="358.626953"/>
     <use xlink:href="#DejaVuSans-69" x="422.005859"/>
     <use xlink:href="#DejaVuSans-66" x="449.789062"/>
     <use xlink:href="#DejaVuSans-74" x="483.244141"/>
     <use xlink:href="#DejaVuSans-65" x="522.453125"/>
     <use xlink:href="#DejaVuSans-64" x="583.976562"/>
     <use xlink:href="#DejaVuSans-20" x="647.453125"/>
     <use xlink:href="#DejaVuSans-74" x="679.240234"/>
     <use xlink:href="#DejaVuSans-61" x="718.449219"/>
     <use xlink:href="#DejaVuSans-72" x="779.728516"/>
     <use xlink:href="#DejaVuSans-67" x="819.091797"/>
     <use xlink:href="#DejaVuSans-65" x="882.568359"/>
     <use xlink:href="#DejaVuSans-74" x="944.091797"/>
     <use xlink:href="#DejaVuSans-73" x="983.300781"/>
    </g>
    <!-- $\theta_{\mathrm{physical}}$ -->
    <g transform="translate(165.9348 151.944662) scale(0.1 -0.1)">
     <use xlink:href="#DejaVuSans-Oblique-3b8" transform="translate(0 0.234375)"/>
     <use xlink:href="#DejaVuSans-70" transform="translate(61.181641 -16.171875) scale(0.7)"/>
     <use xlink:href="#DejaVuSans-68" transform="translate(105.615234 -16.171875) scale(0.7)"/>
     <use xlink:href="#DejaVuSans-79" transform="translate(149.980469 -16.171875) scale(0.7)"/>
     <use xlink:href="#DejaVuSans-73" transform="translate(191.40625 -16.171875) scale(0.7)"/>
     <use xlink:href="#DejaVuSans-69" transform="translate(227.875977 -16.171875) scale(0.7)"/>
     <use xlink:href="#DejaVuSans-63" transform="translate(247.324219 -16.171875) scale(0.7)"/>
     <use xlink:href="#DejaVuSans-61" transform="translate(285.810547 -16.171875) scale(0.7)"/>
     <use xlink:href="#DejaVuSans-6c" transform="translate(328.706055 -16.171875) scale(0.7)"/>
    </g>
   </g>
   <g id="text_11">
    <!-- Unmodified targets -->
    <g transform="translate(135.366831 190.417375) scale(0.1 -0.1)">
     <defs>
      <path id="DejaVuSans-55" d="M 556 4666
L 1191 4666
L 1191 1831
Q 1191 1081 1462 751
Q 1734 422 2344 422
Q 2950 422 3222 751
Q 3494 1081 3494 1831
L 3494 4666
L 4128 4666
L 4128 1753
Q 4128 841 3676 375
Q 3225 -91 2344 -91
Q 1459 -91 1007 375
Q 556 841 556 1753
L 556 4666
z
" transform="scale(0.015625)"/>
     </defs>
     <use xlink:href="#DejaVuSans-55"/>
     <use xlink:href="#DejaVuSans-6e" x="73.193359"/>
     <use xlink:href="#DejaVuSans-6d" x="136.572266"/>
     <use xlink:href="#DejaVuSans-6f" x="233.984375"/>
     <use xlink:href="#DejaVuSans-64" x="295.166016"/>
     <use xlink:href="#DejaVuSans-69" x="358.642578"/>
     <use xlink:href="#DejaVuSans-66" x="386.425781"/>
     <use xlink:href="#DejaVuSans-69" x="421.630859"/>
     <use xlink:href="#DejaVuSans-65" x="449.414062"/>
     <use xlink:href="#DejaVuSans-64" x="510.9375"/>
     <use xlink:href="#DejaVuSans-20" x="574.414062"/>
     <use xlink:href="#DejaVuSans-74" x="606.201172"/>
     <use xlink:href="#DejaVuSans-61" x="645.410156"/>
     <use xlink:href="#DejaVuSans-72" x="706.689453"/>
     <use xlink:href="#DejaVuSans-67" x="746.052734"/>
     <use xlink:href="#DejaVuSans-65" x="809.529297"/>
     <use xlink:href="#DejaVuSans-74" x="871.052734"/>
     <use xlink:href="#DejaVuSans-73" x="910.261719"/>
    </g>
    <!-- $\theta_{\mathrm{replay}}$ -->
    <g transform="translate(169.2848 203.277062) scale(0.1 -0.1)">
     <use xlink:href="#DejaVuSans-Oblique-3b8" transform="translate(0 0.234375)"/>
     <use xlink:href="#DejaVuSans-72" transform="translate(61.181641 -16.171875) scale(0.7)"/>
     <use xlink:href="#DejaVuSans-65" transform="translate(89.960938 -16.171875) scale(0.7)"/>
     <use xlink:href="#DejaVuSans-70" transform="translate(133.027344 -16.171875) scale(0.7)"/>
     <use xlink:href="#DejaVuSans-6c" transform="translate(177.460938 -16.171875) scale(0.7)"/>
     <use xlink:href="#DejaVuSans-61" transform="translate(196.90918 -16.171875) scale(0.7)"/>
     <use xlink:href="#DejaVuSans-79" transform="translate(239.804688 -16.171875) scale(0.7)"/>
    </g>
   </g>
   <g id="text_12">
    <!-- Difference of updates -->
    <g transform="translate(271.240087 160.517575) scale(0.1 -0.1)">
     <use xlink:href="#DejaVuSans-44"/>
     <use xlink:href="#DejaVuSans-69" x="77.001953"/>
     <use xlink:href="#DejaVuSans-66" x="104.785156"/>
     <use xlink:href="#DejaVuSans-66" x="139.990234"/>
     <use xlink:href="#DejaVuSans-65" x="175.195312"/>
     <use xlink:href="#DejaVuSans-72" x="236.71875"/>
     <use xlink:href="#DejaVuSans-65" x="275.582031"/>
     <use xlink:href="#DejaVuSans-6e" x="337.105469"/>
     <use xlink:href="#DejaVuSans-63" x="400.484375"/>
     <use xlink:href="#DejaVuSans-65" x="455.464844"/>
     <use xlink:href="#DejaVuSans-20" x="516.988281"/>
     <use xlink:href="#DejaVuSans-6f" x="548.775391"/>
     <use xlink:href="#DejaVuSans-66" x="609.957031"/>
     <use xlink:href="#DejaVuSans-20" x="645.162109"/>
     <use xlink:href="#DejaVuSans-75" x="676.949219"/>
     <use xlink:href="#DejaVuSans-70" x="740.328125"/>
     <use xlink:href="#DejaVuSans-64" x="803.804688"/>
     <use xlink:href="#DejaVuSans-61" x="867.28125"/>
     <use xlink:href="#DejaVuSans-74" x="928.560547"/>
     <use xlink:href="#DejaVuSans-65" x="967.769531"/>
     <use xlink:href="#DejaVuSans-73" x="1029.292969"/>
    </g>
    <!-- $\Delta\theta=\theta_{\mathrm{physical}}-\theta_{\mathrm{replay}}$ -->
    <g transform="translate(274.8104 173.377262) scale(0.1 -0.1)">
     <defs>
      <path id="DejaVuSans-394" d="M 2188 4044
L 906 525
L 3472 525
L 2188 4044
z
M 50 0
L 1831 4666
L 2547 4666
L 4325 0
L 50 0
z
" transform="scale(0.015625)"/>
      <path id="DejaVuSans-3d" d="M 678 2906
L 4684 2906
L 4684 2381
L 678 2381
L 678 2906
z
M 678 1631
L 4684 1631
L 4684 1100
L 678 1100
L 678 1631
z
" transform="scale(0.015625)"/>
      <path id="DejaVuSans-2212" d="M 678 2272
L 4684 2272
L 4684 1741
L 678 1741
L 678 2272
z
" transform="scale(0.015625)"/>
     </defs>
     <use xlink:href="#DejaVuSans-394" transform="translate(0 0.234375)"/>
     <use xlink:href="#DejaVuSans-Oblique-3b8" transform="translate(68.408203 0.234375)"/>
     <use xlink:href="#DejaVuSans-3d" transform="translate(149.072266 0.234375)"/>
     <use xlink:href="#DejaVuSans-Oblique-3b8" transform="translate(252.34375 0.234375)"/>
     <use xlink:href="#DejaVuSans-70" transform="translate(313.525391 -16.171875) scale(0.7)"/>
     <use xlink:href="#DejaVuSans-68" transform="translate(357.958984 -16.171875) scale(0.7)"/>
     <use xlink:href="#DejaVuSans-79" transform="translate(402.324219 -16.171875) scale(0.7)"/>
     <use xlink:href="#DejaVuSans-73" transform="translate(443.75 -16.171875) scale(0.7)"/>
     <use xlink:href="#DejaVuSans-69" transform="translate(480.219727 -16.171875) scale(0.7)"/>
     <use xlink:href="#DejaVuSans-63" transform="translate(499.667969 -16.171875) scale(0.7)"/>
     <use xlink:href="#DejaVuSans-61" transform="translate(538.154297 -16.171875) scale(0.7)"/>
     <use xlink:href="#DejaVuSans-6c" transform="translate(581.049805 -16.171875) scale(0.7)"/>
     <use xlink:href="#DejaVuSans-2212" transform="translate(622.714844 0.234375)"/>
     <use xlink:href="#DejaVuSans-Oblique-3b8" transform="translate(725.986328 0.234375)"/>
     <use xlink:href="#DejaVuSans-72" transform="translate(787.167969 -16.171875) scale(0.7)"/>
     <use xlink:href="#DejaVuSans-65" transform="translate(815.947266 -16.171875) scale(0.7)"/>
     <use xlink:href="#DejaVuSans-70" transform="translate(859.013672 -16.171875) scale(0.7)"/>
     <use xlink:href="#DejaVuSans-6c" transform="translate(903.447266 -16.171875) scale(0.7)"/>
     <use xlink:href="#DejaVuSans-61" transform="translate(922.895508 -16.171875) scale(0.7)"/>
     <use xlink:href="#DejaVuSans-79" transform="translate(965.791016 -16.171875) scale(0.7)"/>
    </g>
   </g>
   <g id="text_13">
    <!-- Final generator -->
    <g transform="translate(428.802894 161.098825) scale(0.1 -0.1)">
     <use xlink:href="#DejaVuSans-46"/>
     <use xlink:href="#DejaVuSans-69" x="50.269531"/>
     <use xlink:href="#DejaVuSans-6e" x="78.052734"/>
     <use xlink:href="#DejaVuSans-61" x="141.431641"/>
     <use xlink:href="#DejaVuSans-6c" x="202.710938"/>
     <use xlink:href="#DejaVuSans-20" x="230.494141"/>
     <use xlink:href="#DejaVuSans-67" x="262.28125"/>
     <use xlink:href="#DejaVuSans-65" x="325.757812"/>
     <use xlink:href="#DejaVuSans-6e" x="387.28125"/>
     <use xlink:href="#DejaVuSans-65" x="450.660156"/>
     <use xlink:href="#DejaVuSans-72" x="512.183594"/>
     <use xlink:href="#DejaVuSans-61" x="553.296875"/>
     <use xlink:href="#DejaVuSans-74" x="614.576172"/>
     <use xlink:href="#DejaVuSans-6f" x="653.785156"/>
     <use xlink:href="#DejaVuSans-72" x="714.966797"/>
    </g>
    <!-- $\theta_{\mathrm{final}}=\theta_{\mathrm{base}}+\Delta\theta$ -->
    <g transform="translate(425.5568 173.816325) scale(0.1 -0.1)">
     <defs>
      <path id="DejaVuSans-2b" d="M 2944 4013
L 2944 2272
L 4684 2272
L 4684 1741
L 2944 1741
L 2944 0
L 2419 0
L 2419 1741
L 678 1741
L 678 2272
L 2419 2272
L 2419 4013
L 2944 4013
z
" transform="scale(0.015625)"/>
     </defs>
     <use xlink:href="#DejaVuSans-Oblique-3b8" transform="translate(0 0.234375)"/>
     <use xlink:href="#DejaVuSans-66" transform="translate(61.181641 -16.171875) scale(0.7)"/>
     <use xlink:href="#DejaVuSans-69" transform="translate(85.825195 -16.171875) scale(0.7)"/>
     <use xlink:href="#DejaVuSans-6e" transform="translate(105.273438 -16.171875) scale(0.7)"/>
     <use xlink:href="#DejaVuSans-61" transform="translate(149.638672 -16.171875) scale(0.7)"/>
     <use xlink:href="#DejaVuSans-6c" transform="translate(192.53418 -16.171875) scale(0.7)"/>
     <use xlink:href="#DejaVuSans-3d" transform="translate(234.199219 0.234375)"/>
     <use xlink:href="#DejaVuSans-Oblique-3b8" transform="translate(337.470703 0.234375)"/>
     <use xlink:href="#DejaVuSans-62" transform="translate(398.652344 -16.171875) scale(0.7)"/>
     <use xlink:href="#DejaVuSans-61" transform="translate(443.085938 -16.171875) scale(0.7)"/>
     <use xlink:href="#DejaVuSans-73" transform="translate(485.981445 -16.171875) scale(0.7)"/>
     <use xlink:href="#DejaVuSans-65" transform="translate(522.451172 -16.171875) scale(0.7)"/>
     <use xlink:href="#DejaVuSans-2b" transform="translate(587.734375 0.234375)"/>
     <use xlink:href="#DejaVuSans-394" transform="translate(691.005859 0.234375)"/>
     <use xlink:href="#DejaVuSans-Oblique-3b8" transform="translate(759.414062 0.234375)"/>
    </g>
   </g>
   <g id="text_14">
    <!-- Both also learn from the same original reference structures. -->
    <g style="fill: #405366" transform="translate(48.477066 227.9376) scale(0.09 -0.09)">
     <use xlink:href="#DejaVuSans-42"/>
     <use xlink:href="#DejaVuSans-6f" x="68.603516"/>
     <use xlink:href="#DejaVuSans-74" x="129.785156"/>
     <use xlink:href="#DejaVuSans-68" x="168.994141"/>
     <use xlink:href="#DejaVuSans-20" x="232.373047"/>
     <use xlink:href="#DejaVuSans-61" x="264.160156"/>
     <use xlink:href="#DejaVuSans-6c" x="325.439453"/>
     <use xlink:href="#DejaVuSans-73" x="353.222656"/>
     <use xlink:href="#DejaVuSans-6f" x="405.322266"/>
     <use xlink:href="#DejaVuSans-20" x="466.503906"/>
     <use xlink:href="#DejaVuSans-6c" x="498.291016"/>
     <use xlink:href="#DejaVuSans-65" x="526.074219"/>
     <use xlink:href="#DejaVuSans-61" x="587.597656"/>
     <use xlink:href="#DejaVuSans-72" x="648.876953"/>
     <use xlink:href="#DejaVuSans-6e" x="688.240234"/>
     <use xlink:href="#DejaVuSans-20" x="751.619141"/>
     <use xlink:href="#DejaVuSans-66" x="783.40625"/>
     <use xlink:href="#DejaVuSans-72" x="818.611328"/>
     <use xlink:href="#DejaVuSans-6f" x="857.474609"/>
     <use xlink:href="#DejaVuSans-6d" x="918.65625"/>
     <use xlink:href="#DejaVuSans-20" x="1016.068359"/>
     <use xlink:href="#DejaVuSans-74" x="1047.855469"/>
     <use xlink:href="#DejaVuSans-68" x="1087.064453"/>
     <use xlink:href="#DejaVuSans-65" x="1150.443359"/>
     <use xlink:href="#DejaVuSans-20" x="1211.966797"/>
     <use xlink:href="#DejaVuSans-73" x="1243.753906"/>
     <use xlink:href="#DejaVuSans-61" x="1295.853516"/>
     <use xlink:href="#DejaVuSans-6d" x="1357.132812"/>
     <use xlink:href="#DejaVuSans-65" x="1454.544922"/>
     <use xlink:href="#DejaVuSans-20" x="1516.068359"/>
     <use xlink:href="#DejaVuSans-6f" x="1547.855469"/>
     <use xlink:href="#DejaVuSans-72" x="1609.037109"/>
     <use xlink:href="#DejaVuSans-69" x="1650.150391"/>
     <use xlink:href="#DejaVuSans-67" x="1677.933594"/>
     <use xlink:href="#DejaVuSans-69" x="1741.410156"/>
     <use xlink:href="#DejaVuSans-6e" x="1769.193359"/>
     <use xlink:href="#DejaVuSans-61" x="1832.572266"/>
     <use xlink:href="#DejaVuSans-6c" x="1893.851562"/>
     <use xlink:href="#DejaVuSans-20" x="1921.634766"/>
     <use xlink:href="#DejaVuSans-72" x="1953.421875"/>
     <use xlink:href="#DejaVuSans-65" x="1992.285156"/>
     <use xlink:href="#DejaVuSans-66" x="2053.808594"/>
     <use xlink:href="#DejaVuSans-65" x="2089.013672"/>
     <use xlink:href="#DejaVuSans-72" x="2150.537109"/>
     <use xlink:href="#DejaVuSans-65" x="2189.400391"/>
     <use xlink:href="#DejaVuSans-6e" x="2250.923828"/>
     <use xlink:href="#DejaVuSans-63" x="2314.302734"/>
     <use xlink:href="#DejaVuSans-65" x="2369.283203"/>
     <use xlink:href="#DejaVuSans-20" x="2430.806641"/>
     <use xlink:href="#DejaVuSans-73" x="2462.59375"/>
     <use xlink:href="#DejaVuSans-74" x="2514.693359"/>
     <use xlink:href="#DejaVuSans-72" x="2553.902344"/>
     <use xlink:href="#DejaVuSans-75" x="2595.015625"/>
     <use xlink:href="#DejaVuSans-63" x="2658.394531"/>
     <use xlink:href="#DejaVuSans-74" x="2713.375"/>
     <use xlink:href="#DejaVuSans-75" x="2752.583984"/>
     <use xlink:href="#DejaVuSans-72" x="2815.962891"/>
     <use xlink:href="#DejaVuSans-65" x="2854.826172"/>
     <use xlink:href="#DejaVuSans-73" x="2916.349609"/>
     <use xlink:href="#DejaVuSans-2e" x="2968.449219"/>
    </g>
   </g>
   <g id="text_15">
    <!-- Use for generation. -->
    <g style="fill: #405366" transform="translate(423.248597 208.8864) scale(0.09 -0.09)">
     <use xlink:href="#DejaVuSans-55"/>
     <use xlink:href="#DejaVuSans-73" x="73.193359"/>
     <use xlink:href="#DejaVuSans-65" x="125.292969"/>
     <use xlink:href="#DejaVuSans-20" x="186.816406"/>
     <use xlink:href="#DejaVuSans-66" x="218.603516"/>
     <use xlink:href="#DejaVuSans-6f" x="253.808594"/>
     <use xlink:href="#DejaVuSans-72" x="314.990234"/>
     <use xlink:href="#DejaVuSans-20" x="356.103516"/>
     <use xlink:href="#DejaVuSans-67" x="387.890625"/>
     <use xlink:href="#DejaVuSans-65" x="451.367188"/>
     <use xlink:href="#DejaVuSans-6e" x="512.890625"/>
     <use xlink:href="#DejaVuSans-65" x="576.269531"/>
     <use xlink:href="#DejaVuSans-72" x="637.792969"/>
     <use xlink:href="#DejaVuSans-61" x="678.90625"/>
     <use xlink:href="#DejaVuSans-74" x="740.185547"/>
     <use xlink:href="#DejaVuSans-69" x="779.394531"/>
     <use xlink:href="#DejaVuSans-6f" x="807.177734"/>
     <use xlink:href="#DejaVuSans-6e" x="868.359375"/>
     <use xlink:href="#DejaVuSans-2e" x="931.738281"/>
    </g>
   </g>
  </g>
 </g>
 <defs>
  <clipPath id="p2a360f463f">
   <rect x="1.44" y="1.44" width="529.2" height="232.848"/>
  </clipPath>
 </defs>
</svg>
