<?xml version="1.0" encoding="utf-8" standalone="no"?>
<!DOCTYPE svg PUBLIC "-//W3C//DTD SVG 1.1//EN"
  "http://www.w3.org/Graphics/SVG/1.1/DTD/svg11.dtd">
<svg xmlns:xlink="http://www.w3.org/1999/xlink" width="396pt" height="219.6pt" viewBox="0 0 396 219.6" xmlns="http://www.w3.org/2000/svg" version="1.1">
 <metadata>
  <rdf:RDF xmlns:dc="http://purl.org/dc/elements/1.1/" xmlns:cc="http://creativecommons.org/ns#" xmlns:rdf="http://www.w3.org/1999/02/22-rdf-syntax-ns#">
   <cc:Work>
    <dc:type rdf:resource="http://purl.org/dc/dcmitype/StillImage"/>
    <dc:date>2026-09-24T13:14:56.620929</dc:date>
    <dc:format>image/svg+xml</dc:format>
    <dc:creator>
     <cc:Agent>
      <dc:title>Matplotlib v3.8.2, https://matplotlib.org/</dc:title>
     </cc:Agent>
    </dc:creator>
   </cc:Work>
  </rdf:RDF>
 </metadata>
 <defs>
  <style type="text/css">*{stroke-linejoin: round; stroke-linecap: butt}</style>
 </defs>
 <g id="figure_1">
  <g id="patch_1">
   <path d="M 0 219.6 
L 396 219.6 
L 396 0 
L 0 0 
z
" style="fill: #ffffff"/>
  </g>
  <g id="axes_1">
   <g id="patch_2">
    <path d="M 39.6 151.524 
L 174.24 151.524 
L 174.24 43.92 
L 39.6 43.92 
z
" style="fill: #ffffff"/>
   </g>
   <g id="matplotlib.axis_1">
    <g id="xtick_1">
     <g id="line2d_1">
      <defs>
       <path id="m0f58c38d37" d="M 0 0 
L 0 3 
" style="stroke: #aeb8c0; stroke-width: 0.8"/>
      </defs>
      <g>
       <use xlink:href="#m0f58c38d37" x="60.17" y="151.524" style="fill: #aeb8c0; stroke: #aeb8c0; stroke-width: 0.8"/>
      </g>
     </g>
     <g id="text_1">
      <text style="font: 8.5px 'DejaVu Sans'; text-anchor: middle" x="60.17" y="164.482672" transform="rotate(-0 60.17 164.482672)">Off</text>
     </g>
    </g>
    <g id="xtick_2">
     <g id="line2d_2">
      <g>
       <use xlink:href="#m0f58c38d37" x="153.67" y="151.524" style="fill: #aeb8c0; stroke: #aeb8c0; stroke-width: 0.8"/>
      </g>
     </g>
     <g id="text_2">
      <text style="font: 8.5px 'DejaVu Sans'; text-anchor: middle" x="153.67" y="164.482672" transform="rotate(-0 153.67 164.482672)">On</text>
     </g>
    </g>
    <g id="text_3">
     <text style="fill: #263746; font: 9px 'DejaVu Sans'; text-anchor: middle" x="106.92" y="181.089" transform="rotate(-0 106.92 181.089)">Physical correction</text>
    </g>
   </g>
   <g id="matplotlib.axis_2">
    <g id="ytick_1">
     <g id="line2d_3">
      <path d="M 39.6 151.524 
L 174.24 151.524 
" clip-path="url(#p0a7ab6c691)" style="fill: none; stroke: #e7ecef; stroke-width: 0.5; stroke-linecap: square"/>
     </g>
     <g id="line2d_4">
      <defs>
       <path id="m4073de6107" d="M 0 0 
L -3 0 
" style="stroke: #aeb8c0; stroke-width: 0.8"/>
      </defs>
      <g>
       <use xlink:href="#m4073de6107" x="39.6" y="151.524" style="fill: #aeb8c0; stroke: #aeb8c0; stroke-width: 0.8"/>
      </g>
     </g>
     <g id="text_4">
      <text style="font: 8.5px 'DejaVu Sans'; text-anchor: end" x="33.1" y="154.753336" transform="rotate(-0 33.1 154.753336)">0</text>
     </g>
    </g>
    <g id="ytick_2">
     <g id="line2d_5">
      <path d="M 39.6 117.89775 
L 174.24 117.89775 
" clip-path="url(#p0a7ab6c691)" style="fill: none; stroke: #e7ecef; stroke-width: 0.5; stroke-linecap: square"/>
     </g>
     <g id="line2d_6">
      <g>
       <use xlink:href="#m4073de6107" x="39.6" y="117.89775" style="fill: #aeb8c0; stroke: #aeb8c0; stroke-width: 0.8"/>
      </g>
     </g>
     <g id="text_5">
      <text style="font: 8.5px 'DejaVu Sans'; text-anchor: end" x="33.1" y="121.127086" transform="rotate(-0 33.1 121.127086)">10</text>
     </g>
    </g>
    <g id="ytick_3">
     <g id="line2d_7">
      <path d="M 39.6 84.2715 
L 174.24 84.2715 
" clip-path="url(#p0a7ab6c691)" style="fill: none; stroke: #e7ecef; stroke-width: 0.5; stroke-linecap: square"/>
     </g>
     <g id="line2d_8">
      <g>
       <use xlink:href="#m4073de6107" x="39.6" y="84.2715" style="fill: #aeb8c0; stroke: #aeb8c0; stroke-width: 0.8"/>
      </g>
     </g>
     <g id="text_6">
      <text style="font: 8.5px 'DejaVu Sans'; text-anchor: end" x="33.1" y="87.500836" transform="rotate(-0 33.1 87.500836)">20</text>
     </g>
    </g>
    <g id="ytick_4">
     <g id="line2d_9">
      <path d="M 39.6 50.64525 
L 174.24 50.64525 
" clip-path="url(#p0a7ab6c691)" style="fill: none; stroke: #e7ecef; stroke-width: 0.5; stroke-linecap: square"/>
     </g>
     <g id="line2d_10">
      <g>
       <use xlink:href="#m4073de6107" x="39.6" y="50.64525" style="fill: #aeb8c0; stroke: #aeb8c0; stroke-width: 0.8"/>
      </g>
     </g>
     <g id="text_7">
      <text style="font: 8.5px 'DejaVu Sans'; text-anchor: end" x="33.1" y="53.874586" transform="rotate(-0 33.1 53.874586)">30</text>
     </g>
    </g>
    <g id="text_8">
     <text style="fill: #263746; font: 9px 'DejaVu Sans'; text-anchor: middle" x="13.412031" y="97.722" transform="rotate(-90 13.412031 97.722)">Joint yield (%)</text>
    </g>
   </g>
   <g id="line2d_11">
    <path d="M 60.17 132.806263 
L 153.67 85.190968 
" clip-path="url(#p0a7ab6c691)" style="fill: none; stroke: #87939f; stroke-opacity: 0.35; stroke-width: 0.7; stroke-linecap: square"/>
   </g>
   <g id="line2d_12">
    <path d="M 60.17 128.208924 
L 153.67 83.877442 
" clip-path="url(#p0a7ab6c691)" style="fill: none; stroke: #87939f; stroke-opacity: 0.35; stroke-width: 0.7; stroke-linecap: square"/>
   </g>
   <g id="line2d_13">
    <path d="M 60.17 130.507594 
L 153.67 84.534205 
" clip-path="url(#p0a7ab6c691)" style="fill: none; stroke: #87939f; stroke-width: 1.7; stroke-linecap: square"/>
    <defs>
     <path id="m90f83043a4" d="M -2.5 2.5 
L 2.5 2.5 
L 2.5 -2.5 
L -2.5 -2.5 
z
" style="stroke: #87939f; stroke-linejoin: miter"/>
    </defs>
    <g clip-path="url(#p0a7ab6c691)">
     <use xlink:href="#m90f83043a4" x="60.17" y="130.507594" style="fill: #87939f; stroke: #87939f; stroke-linejoin: miter"/>
     <use xlink:href="#m90f83043a4" x="153.67" y="84.534205" style="fill: #87939f; stroke: #87939f; stroke-linejoin: miter"/>
    </g>
   </g>
   <g id="line2d_14">
    <path d="M 60.17 128.208924 
L 153.67 73.369239 
" clip-path="url(#p0a7ab6c691)" style="fill: none; stroke: #197d78; stroke-opacity: 0.35; stroke-width: 0.7; stroke-linecap: square"/>
   </g>
   <g id="line2d_15">
    <path d="M 60.17 126.238636 
L 153.67 66.473231 
" clip-path="url(#p0a7ab6c691)" style="fill: none; stroke: #197d78; stroke-opacity: 0.35; stroke-width: 0.7; stroke-linecap: square"/>
   </g>
   <g id="line2d_16">
    <path d="M 60.17 127.22378 
L 153.67 69.921235 
" clip-path="url(#p0a7ab6c691)" style="fill: none; stroke: #197d78; stroke-width: 1.7; stroke-linecap: square"/>
    <defs>
     <path id="mc243151af2" d="M 0 2.5 
C 0.663008 2.5 1.29895 2.236584 1.767767 1.767767 
C 2.236584 1.29895 2.5 0.663008 2.5 0 
C 2.5 -0.663008 2.236584 -1.29895 1.767767 -1.767767 
C 1.29895 -2.236584 0.663008 -2.5 0 -2.5 
C -0.663008 -2.5 -1.29895 -2.236584 -1.767767 -1.767767 
C -2.236584 -1.29895 -2.5 -0.663008 -2.5 0 
C -2.5 0.663008 -2.236584 1.29895 -1.767767 1.767767 
C -1.29895 2.236584 -0.663008 2.5 0 2.5 
z
" style="stroke: #197d78"/>
    </defs>
    <g clip-path="url(#p0a7ab6c691)">
     <use xlink:href="#mc243151af2" x="60.17" y="127.22378" style="fill: #197d78; stroke: #197d78"/>
     <use xlink:href="#mc243151af2" x="153.67" y="69.921235" style="fill: #197d78; stroke: #197d78"/>
    </g>
   </g>
   <g id="patch_3">
    <path d="M 39.6 151.524 
L 39.6 43.92 
" style="fill: none; stroke: #bdc5cb; stroke-width: 0.65; stroke-linejoin: miter; stroke-linecap: square"/>
   </g>
   <g id="patch_4">
    <path d="M 39.6 151.524 
L 174.24 151.524 
" style="fill: none; stroke: #bdc5cb; stroke-width: 0.65; stroke-linejoin: miter; stroke-linecap: square"/>
   </g>
   <g id="text_9">
    <text style="fill: #87939f; font: 8.5px 'DejaVu Sans'; text-anchor: middle" x="60.17" y="145.507594" transform="rotate(-0 60.17 145.507594)">6.25</text>
   </g>
   <g id="text_10">
    <text style="fill: #87939f; font: 8.5px 'DejaVu Sans'; text-anchor: middle" x="153.67" y="99.534205" transform="rotate(-0 153.67 99.534205)">19.92</text>
   </g>
   <g id="text_11">
    <text style="fill: #197d78; font: 8.5px 'DejaVu Sans'; text-anchor: middle" x="60.17" y="119.22378" transform="rotate(-0 60.17 119.22378)">7.23</text>
   </g>
   <g id="text_12">
    <text style="fill: #197d78; font: 8.5px 'DejaVu Sans'; text-anchor: middle" x="153.67" y="61.921235" transform="rotate(-0 153.67 61.921235)">24.27</text>
   </g>
   <g id="text_13">
    <text style="fill: #263746; font: 700 10px 'DejaVu Sans'; text-anchor: start" x="39.6" y="26.92" transform="rotate(-0 39.6 26.92)">A  Four configurations</text>
   </g>
  </g>
  <g id="axes_2">
   <g id="patch_5">
    <path d="M 245.52 151.524 
L 384.12 151.524 
L 384.12 43.92 
L 245.52 43.92 
z
" style="fill: #ffffff"/>
   </g>
   <g id="matplotlib.axis_3">
    <g id="xtick_3">
     <g id="line2d_17">
      <path d="M 267.404211 151.524 
L 267.404211 43.92 
" clip-path="url(#p0cc33c40ce)" style="fill: none; stroke: #e7ecef; stroke-width: 0.5; stroke-linecap: square"/>
     </g>
     <g id="line2d_18">
      <g>
       <use xlink:href="#m0f58c38d37" x="267.404211" y="151.524" style="fill: #aeb8c0; stroke: #aeb8c0; stroke-width: 0.8"/>
      </g>
     </g>
     <g id="text_14">
      <text style="font: 8.5px 'DejaVu Sans'; text-anchor: middle" x="267.404211" y="164.482672" transform="rotate(-0 267.404211 164.482672)">0</text>
     </g>
    </g>
    <g id="xtick_4">
     <g id="line2d_19">
      <path d="M 325.762105 151.524 
L 325.762105 43.92 
" clip-path="url(#p0cc33c40ce)" style="fill: none; stroke: #e7ecef; stroke-width: 0.5; stroke-linecap: square"/>
     </g>
     <g id="line2d_20">
      <g>
       <use xlink:href="#m0f58c38d37" x="325.762105" y="151.524" style="fill: #aeb8c0; stroke: #aeb8c0; stroke-width: 0.8"/>
      </g>
     </g>
     <g id="text_15">
      <text style="font: 8.5px 'DejaVu Sans'; text-anchor: middle" x="325.762105" y="164.482672" transform="rotate(-0 325.762105 164.482672)">4</text>
     </g>
    </g>
    <g id="xtick_5">
     <g id="line2d_21">
      <path d="M 384.12 151.524 
L 384.12 43.92 
" clip-path="url(#p0cc33c40ce)" style="fill: none; stroke: #e7ecef; stroke-width: 0.5; stroke-linecap: square"/>
     </g>
     <g id="line2d_22">
      <g>
       <use xlink:href="#m0f58c38d37" x="384.12" y="151.524" style="fill: #aeb8c0; stroke: #aeb8c0; stroke-width: 0.8"/>
      </g>
     </g>
     <g id="text_16">
      <text style="font: 8.5px 'DejaVu Sans'; text-anchor: middle" x="384.12" y="164.482672" transform="rotate(-0 384.12 164.482672)">8</text>
     </g>
    </g>
    <g id="text_17">
     <text style="fill: #263746; font: 9px 'DejaVu Sans'; text-anchor: middle" x="314.82" y="181.089" transform="rotate(-0 314.82 181.089)">Source gain (pp)</text>
    </g>
   </g>
   <g id="matplotlib.axis_4">
    <g id="ytick_5">
     <g id="line2d_23">
      <g>
       <use xlink:href="#m4073de6107" x="245.52" y="125.904" style="fill: #aeb8c0; stroke: #aeb8c0; stroke-width: 0.8"/>
      </g>
     </g>
     <g id="text_18">
      <text style="font: 8.5px 'DejaVu Sans'; text-anchor: end" x="239.02" y="129.133336" transform="rotate(-0 239.02 129.133336)">Off</text>
     </g>
    </g>
    <g id="ytick_6">
     <g id="line2d_24">
      <g>
       <use xlink:href="#m4073de6107" x="245.52" y="74.664" style="fill: #aeb8c0; stroke: #aeb8c0; stroke-width: 0.8"/>
      </g>
     </g>
     <g id="text_19">
      <text style="font: 8.5px 'DejaVu Sans'; text-anchor: end" x="239.02" y="77.893336" transform="rotate(-0 239.02 77.893336)">On</text>
     </g>
    </g>
    <g id="text_20">
     <text style="fill: #263746; font: 9px 'DejaVu Sans'; text-anchor: middle" x="215.472656" y="97.722" transform="rotate(-90 215.472656 97.722)">Physical correction</text>
    </g>
   </g>
   <g id="LineCollection_1">
    <path d="M 257.430938 125.904 
L 304.447796 125.904 
" clip-path="url(#p0cc33c40ce)" style="fill: none; stroke: #87939f; stroke-width: 1.3"/>
   </g>
   <g id="line2d_25">
    <defs>
     <path id="m023e374052" d="M 0 3 
L 0 -3 
" style="stroke: #87939f"/>
    </defs>
    <g clip-path="url(#p0cc33c40ce)">
     <use xlink:href="#m023e374052" x="257.430938" y="125.904" style="fill: #87939f; stroke: #87939f"/>
    </g>
   </g>
   <g id="line2d_26">
    <g clip-path="url(#p0cc33c40ce)">
     <use xlink:href="#m023e374052" x="304.447796" y="125.904" style="fill: #87939f; stroke: #87939f"/>
    </g>
   </g>
   <g id="LineCollection_2">
    <path d="M 290.200263 74.664 
L 371.411201 74.664 
" clip-path="url(#p0cc33c40ce)" style="fill: none; stroke: #197d78; stroke-width: 1.3"/>
   </g>
   <g id="line2d_27">
    <defs>
     <path id="mba9d645013" d="M 0 3 
L 0 -3 
" style="stroke: #197d78"/>
    </defs>
    <g clip-path="url(#p0cc33c40ce)">
     <use xlink:href="#mba9d645013" x="290.200263" y="74.664" style="fill: #197d78; stroke: #197d78"/>
    </g>
   </g>
   <g id="line2d_28">
    <g clip-path="url(#p0cc33c40ce)">
     <use xlink:href="#mba9d645013" x="371.411201" y="74.664" style="fill: #197d78; stroke: #197d78"/>
    </g>
   </g>
   <g id="line2d_29">
    <path d="M 267.404211 151.524 
L 267.404211 43.92 
" clip-path="url(#p0cc33c40ce)" style="fill: none; stroke-dasharray: 2.96,1.28; stroke-dashoffset: 0; stroke: #b6c0c8; stroke-width: 0.8"/>
   </g>
   <g id="line2d_30">
    <defs>
     <path id="m3b6730ca36" d="M 0 2.5 
C 0.663008 2.5 1.29895 2.236584 1.767767 1.767767 
C 2.236584 1.29895 2.5 0.663008 2.5 0 
C 2.5 -0.663008 2.236584 -1.29895 1.767767 -1.767767 
C 1.29895 -2.236584 0.663008 -2.5 0 -2.5 
C -0.663008 -2.5 -1.29895 -2.236584 -1.767767 -1.767767 
C -2.236584 -1.29895 -2.5 -0.663008 -2.5 0 
C -2.5 0.663008 -2.236584 1.29895 -1.767767 1.767767 
C -1.29895 2.236584 -0.663008 2.5 0 2.5 
z
" style="stroke: #87939f"/>
    </defs>
    <g clip-path="url(#p0cc33c40ce)">
     <use xlink:href="#m3b6730ca36" x="281.651743" y="125.904" style="fill: #87939f; stroke: #87939f"/>
    </g>
   </g>
   <g id="line2d_31">
    <g clip-path="url(#p0cc33c40ce)">
     <use xlink:href="#mc243151af2" x="330.805732" y="74.664" style="fill: #197d78; stroke: #197d78"/>
    </g>
   </g>
   <g id="patch_6">
    <path d="M 245.52 151.524 
L 245.52 43.92 
" style="fill: none; stroke: #bdc5cb; stroke-width: 0.65; stroke-linejoin: miter; stroke-linecap: square"/>
   </g>
   <g id="patch_7">
    <path d="M 245.52 151.524 
L 384.12 151.524 
" style="fill: none; stroke: #bdc5cb; stroke-width: 0.65; stroke-linejoin: miter; stroke-linecap: square"/>
   </g>
   <g id="text_21">
    <text style="fill: #87939f; font: 700 9px 'DejaVu Sans'; text-anchor: middle" x="281.651743" y="114.904" transform="rotate(-0 281.651743 114.904)">+0.98</text>
   </g>
   <g id="text_22">
    <text style="fill: #197d78; font: 700 9px 'DejaVu Sans'; text-anchor: middle" x="330.805732" y="63.664" transform="rotate(-0 330.805732 63.664)">+4.35</text>
   </g>
   <g id="text_23">
    <text style="fill: #263746; font: 700 10px 'DejaVu Sans'; text-anchor: start" x="245.52" y="26.92" transform="rotate(-0 245.52 26.92)">B  Harmonic source gain</text>
   </g>
  </g>
  <g id="legend_1">
   <g id="line2d_32">
    <path d="M 94.853828 203.913266 
L 103.353828 203.913266 
L 111.853828 203.913266 
" style="fill: none; stroke: #87939f; stroke-width: 1.5; stroke-linecap: square"/>
    <defs>
     <path id="m6b31bbca21" d="M -3 3 
L 3 3 
L 3 -3 
L -3 -3 
z
" style="stroke: #87939f; stroke-linejoin: miter"/>
    </defs>
    <g>
     <use xlink:href="#m6b31bbca21" x="103.353828" y="203.913266" style="fill: #87939f; stroke: #87939f; stroke-linejoin: miter"/>
    </g>
   </g>
   <g id="text_24">
    <text style="fill: #263746; font: 8.5px 'DejaVu Sans'; text-anchor: start" x="118.653828" y="206.888266" transform="rotate(-0 118.653828 206.888266)">Gaussian source</text>
   </g>
   <g id="line2d_33">
    <path d="M 205.572969 203.913266 
L 214.072969 203.913266 
L 222.572969 203.913266 
" style="fill: none; stroke: #197d78; stroke-width: 1.5; stroke-linecap: square"/>
    <defs>
     <path id="m3f0b427a1e" d="M 0 3 
C 0.795609 3 1.55874 2.683901 2.12132 2.12132 
C 2.683901 1.55874 3 0.795609 3 0 
C 3 -0.795609 2.683901 -1.55874 2.12132 -2.12132 
C 1.55874 -2.683901 0.795609 -3 0 -3 
C -0.795609 -3 -1.55874 -2.683901 -2.12132 -2.12132 
C -2.683901 -1.55874 -3 -0.795609 -3 0 
C -3 0.795609 -2.683901 1.55874 -2.12132 2.12132 
C -1.55874 2.683901 -0.795609 3 0 3 
z
" style="stroke: #197d78"/>
    </defs>
    <g>
     <use xlink:href="#m3f0b427a1e" x="214.072969" y="203.913266" style="fill: #197d78; stroke: #197d78"/>
    </g>
   </g>
   <g id="text_25">
    <text style="fill: #263746; font: 8.5px 'DejaVu Sans'; text-anchor: start" x="229.372969" y="206.888266" transform="rotate(-0 229.372969 206.888266)">Harmonic source</text>
   </g>
  </g>
 </g>
 <defs>
  <clipPath id="p0a7ab6c691">
   <rect x="39.6" y="43.92" width="134.64" height="107.604"/>
  </clipPath>
  <clipPath id="p0cc33c40ce">
   <rect x="245.52" y="43.92" width="138.6" height="107.604"/>
  </clipPath>
 </defs>
</svg>
