<?xml version="1.0" encoding="utf-8" standalone="no"?>
<!DOCTYPE svg PUBLIC "-//W3C//DTD SVG 1.1//EN"
  "http://www.w3.org/Graphics/SVG/1.1/DTD/svg11.dtd">
<svg xmlns:xlink="http://www.w3.org/1999/xlink" width="396pt" height="212.4pt" viewBox="0 0 396 212.4" xmlns="http://www.w3.org/2000/svg" version="1.1">
 <metadata>
  <rdf:RDF xmlns:dc="http://purl.org/dc/elements/1.1/" xmlns:cc="http://creativecommons.org/ns#" xmlns:rdf="http://www.w3.org/1999/02/22-rdf-syntax-ns#">
   <cc:Work>
    <dc:type rdf:resource="http://purl.org/dc/dcmitype/StillImage"/>
    <dc:date>2026-09-24T13:14:57.018809</dc:date>
    <dc:format>image/svg+xml</dc:format>
    <dc:creator>
     <cc:Agent>
      <dc:title>Matplotlib v3.8.2, https://matplotlib.org/</dc:title>
     </cc:Agent>
    </dc:creator>
   </cc:Work>
  </rdf:RDF>
 </metadata>
 <defs>
  <style type="text/css">*{stroke-linejoin: round; stroke-linecap: butt}</style>
 </defs>
 <g id="figure_1">
  <g id="patch_1">
   <path d="M 0 212.4 
L 396 212.4 
L 396 0 
L 0 0 
z
" style="fill: #ffffff"/>
  </g>
  <g id="axes_1">
   <g id="patch_2">
    <path d="M 39.6 155.052 
L 190.252174 155.052 
L 190.252174 46.728 
L 39.6 46.728 
z
" style="fill: #ffffff"/>
   </g>
   <g id="matplotlib.axis_1">
    <g id="xtick_1">
     <g id="line2d_1">
      <defs>
       <path id="mca79c7ff17" d="M 0 0 
L 0 3 
" style="stroke: #aeb8c0; stroke-width: 0.8"/>
      </defs>
      <g>
       <use xlink:href="#mca79c7ff17" x="61.121739" y="155.052" style="fill: #aeb8c0; stroke: #aeb8c0; stroke-width: 0.8"/>
      </g>
     </g>
     <g id="text_1">
      <text style="font: 8.5px 'DejaVu Sans'; text-anchor: middle" x="61.121739" y="168.010672" transform="rotate(-0 61.121739 168.010672)">Parent</text>
     </g>
    </g>
    <g id="xtick_2">
     <g id="line2d_2">
      <g>
       <use xlink:href="#mca79c7ff17" x="114.926087" y="155.052" style="fill: #aeb8c0; stroke: #aeb8c0; stroke-width: 0.8"/>
      </g>
     </g>
     <g id="text_2">
      <text style="font: 8.5px 'DejaVu Sans'" transform="translate(105.411399 168.010672)">Own</text>
      <text style="font: 8.5px 'DejaVu Sans'" transform="translate(104.315032 177.528813)">head</text>
     </g>
    </g>
    <g id="xtick_3">
     <g id="line2d_3">
      <g>
       <use xlink:href="#mca79c7ff17" x="168.730435" y="155.052" style="fill: #aeb8c0; stroke: #aeb8c0; stroke-width: 0.8"/>
      </g>
     </g>
     <g id="text_3">
      <text style="font: 8.5px 'DejaVu Sans'" transform="translate(144.753794 168.010672)">Transferred</text>
      <text style="font: 8.5px 'DejaVu Sans'" transform="translate(158.11938 177.528813)">head</text>
     </g>
    </g>
   </g>
   <g id="matplotlib.axis_2">
    <g id="ytick_1">
     <g id="line2d_4">
      <path d="M 39.6 155.052 
L 190.252174 155.052 
" clip-path="url(#pbddee45344)" style="fill: none; stroke: #e7ecef; stroke-width: 0.5; stroke-linecap: square"/>
     </g>
     <g id="line2d_5">
      <defs>
       <path id="mca5e040633" d="M 0 0 
L -3 0 
" style="stroke: #aeb8c0; stroke-width: 0.8"/>
      </defs>
      <g>
       <use xlink:href="#mca5e040633" x="39.6" y="155.052" style="fill: #aeb8c0; stroke: #aeb8c0; stroke-width: 0.8"/>
      </g>
     </g>
     <g id="text_4">
      <text style="font: 8.5px 'DejaVu Sans'; text-anchor: end" x="33.1" y="158.281336" transform="rotate(-0 33.1 158.281336)">0</text>
     </g>
    </g>
    <g id="ytick_2">
     <g id="line2d_6">
      <path d="M 39.6 124.962 
L 190.252174 124.962 
" clip-path="url(#pbddee45344)" style="fill: none; stroke: #e7ecef; stroke-width: 0.5; stroke-linecap: square"/>
     </g>
     <g id="line2d_7">
      <g>
       <use xlink:href="#mca5e040633" x="39.6" y="124.962" style="fill: #aeb8c0; stroke: #aeb8c0; stroke-width: 0.8"/>
      </g>
     </g>
     <g id="text_5">
      <text style="font: 8.5px 'DejaVu Sans'; text-anchor: end" x="33.1" y="128.191336" transform="rotate(-0 33.1 128.191336)">10</text>
     </g>
    </g>
    <g id="ytick_3">
     <g id="line2d_8">
      <path d="M 39.6 94.872 
L 190.252174 94.872 
" clip-path="url(#pbddee45344)" style="fill: none; stroke: #e7ecef; stroke-width: 0.5; stroke-linecap: square"/>
     </g>
     <g id="line2d_9">
      <g>
       <use xlink:href="#mca5e040633" x="39.6" y="94.872" style="fill: #aeb8c0; stroke: #aeb8c0; stroke-width: 0.8"/>
      </g>
     </g>
     <g id="text_6">
      <text style="font: 8.5px 'DejaVu Sans'; text-anchor: end" x="33.1" y="98.101336" transform="rotate(-0 33.1 98.101336)">20</text>
     </g>
    </g>
    <g id="ytick_4">
     <g id="line2d_10">
      <path d="M 39.6 64.782 
L 190.252174 64.782 
" clip-path="url(#pbddee45344)" style="fill: none; stroke: #e7ecef; stroke-width: 0.5; stroke-linecap: square"/>
     </g>
     <g id="line2d_11">
      <g>
       <use xlink:href="#mca5e040633" x="39.6" y="64.782" style="fill: #aeb8c0; stroke: #aeb8c0; stroke-width: 0.8"/>
      </g>
     </g>
     <g id="text_7">
      <text style="font: 8.5px 'DejaVu Sans'; text-anchor: end" x="33.1" y="68.011336" transform="rotate(-0 33.1 68.011336)">30</text>
     </g>
    </g>
    <g id="text_8">
     <text style="fill: #263746; font: 9px 'DejaVu Sans'; text-anchor: middle" x="12.412031" y="100.89" transform="rotate(-90 12.412031 100.89)">Joint yield (%)</text>
    </g>
   </g>
   <g id="line2d_12">
    <path d="M 61.121739 118.027195 
L 114.926087 72.774656 
L 168.730435 69.542332 
" clip-path="url(#pbddee45344)" style="fill: none; stroke-dasharray: 4.07,1.76; stroke-dashoffset: 0; stroke: #bac2c7; stroke-opacity: 0.9; stroke-width: 1.1"/>
    <defs>
     <path id="mb4e4edc070" d="M 0 1.65 
C 0.437585 1.65 0.857307 1.476146 1.166726 1.166726 
C 1.476146 0.857307 1.65 0.437585 1.65 0 
C 1.65 -0.437585 1.476146 -0.857307 1.166726 -1.166726 
C 0.857307 -1.476146 0.437585 -1.65 0 -1.65 
C -0.437585 -1.65 -0.857307 -1.476146 -1.166726 -1.166726 
C -1.476146 -0.857307 -1.65 -0.437585 -1.65 0 
C -1.65 0.437585 -1.476146 0.857307 -1.166726 1.166726 
C -0.857307 1.476146 -0.437585 1.65 0 1.65 
z
" style="stroke: #bac2c7; stroke-opacity: 0.9"/>
    </defs>
    <g clip-path="url(#pbddee45344)">
     <use xlink:href="#mb4e4edc070" x="61.121739" y="118.027195" style="fill: #ffffff; fill-opacity: 0.9; stroke: #bac2c7; stroke-opacity: 0.9"/>
     <use xlink:href="#mb4e4edc070" x="114.926087" y="72.774656" style="fill: #ffffff; fill-opacity: 0.9; stroke: #bac2c7; stroke-opacity: 0.9"/>
     <use xlink:href="#mb4e4edc070" x="168.730435" y="69.542332" style="fill: #ffffff; fill-opacity: 0.9; stroke: #bac2c7; stroke-opacity: 0.9"/>
    </g>
   </g>
   <g id="line2d_13">
    <path d="M 61.121739 135.070359 
L 114.926087 82.765477 
L 168.730435 84.234715 
" clip-path="url(#pbddee45344)" style="fill: none; stroke-dasharray: 4.07,1.76; stroke-dashoffset: 0; stroke: #8e9ba5; stroke-opacity: 0.9; stroke-width: 1.1"/>
    <defs>
     <path id="md82a9bbef1" d="M 0 1.65 
C 0.437585 1.65 0.857307 1.476146 1.166726 1.166726 
C 1.476146 0.857307 1.65 0.437585 1.65 0 
C 1.65 -0.437585 1.476146 -0.857307 1.166726 -1.166726 
C 0.857307 -1.476146 0.437585 -1.65 0 -1.65 
C -0.437585 -1.65 -0.857307 -1.476146 -1.166726 -1.166726 
C -1.476146 -0.857307 -1.65 -0.437585 -1.65 0 
C -1.65 0.437585 -1.476146 0.857307 -1.166726 1.166726 
C -0.857307 1.476146 -0.437585 1.65 0 1.65 
z
" style="stroke: #8e9ba5; stroke-opacity: 0.9"/>
    </defs>
    <g clip-path="url(#pbddee45344)">
     <use xlink:href="#md82a9bbef1" x="61.121739" y="135.070359" style="fill: #ffffff; fill-opacity: 0.9; stroke: #8e9ba5; stroke-opacity: 0.9"/>
     <use xlink:href="#md82a9bbef1" x="114.926087" y="82.765477" style="fill: #ffffff; fill-opacity: 0.9; stroke: #8e9ba5; stroke-opacity: 0.9"/>
     <use xlink:href="#md82a9bbef1" x="168.730435" y="84.234715" style="fill: #ffffff; fill-opacity: 0.9; stroke: #8e9ba5; stroke-opacity: 0.9"/>
    </g>
   </g>
   <g id="line2d_14">
    <path d="M 61.121739 120.377977 
L 114.926087 68.954637 
L 168.730435 72.186961 
" clip-path="url(#pbddee45344)" style="fill: none; stroke: #4479a3; stroke-opacity: 0.9; stroke-width: 1.7; stroke-linecap: square"/>
    <defs>
     <path id="m12ccf46ba5" d="M 0 2.2 
C 0.583447 2.2 1.143076 1.968194 1.555635 1.555635 
C 1.968194 1.143076 2.2 0.583447 2.2 0 
C 2.2 -0.583447 1.968194 -1.143076 1.555635 -1.555635 
C 1.143076 -1.968194 0.583447 -2.2 0 -2.2 
C -0.583447 -2.2 -1.143076 -1.968194 -1.555635 -1.555635 
C -1.968194 -1.143076 -2.2 -0.583447 -2.2 0 
C -2.2 0.583447 -1.968194 1.143076 -1.555635 1.555635 
C -1.143076 1.968194 -0.583447 2.2 0 2.2 
z
" style="stroke: #4479a3; stroke-opacity: 0.9"/>
    </defs>
    <g clip-path="url(#pbddee45344)">
     <use xlink:href="#m12ccf46ba5" x="61.121739" y="120.377977" style="fill: #4479a3; fill-opacity: 0.9; stroke: #4479a3; stroke-opacity: 0.9"/>
     <use xlink:href="#m12ccf46ba5" x="114.926087" y="68.954637" style="fill: #4479a3; fill-opacity: 0.9; stroke: #4479a3; stroke-opacity: 0.9"/>
     <use xlink:href="#m12ccf46ba5" x="168.730435" y="72.186961" style="fill: #4479a3; fill-opacity: 0.9; stroke: #4479a3; stroke-opacity: 0.9"/>
    </g>
   </g>
   <g id="line2d_15">
    <path d="M 61.121739 129.193406 
L 114.926087 72.774656 
L 168.730435 73.950047 
" clip-path="url(#pbddee45344)" style="fill: none; stroke: #c18546; stroke-opacity: 0.9; stroke-width: 1.7; stroke-linecap: square"/>
    <defs>
     <path id="md0a161b3bd" d="M -2.2 2.2 
L 2.2 2.2 
L 2.2 -2.2 
L -2.2 -2.2 
z
" style="stroke: #c18546; stroke-opacity: 0.9; stroke-linejoin: miter"/>
    </defs>
    <g clip-path="url(#pbddee45344)">
     <use xlink:href="#md0a161b3bd" x="61.121739" y="129.193406" style="fill: #c18546; fill-opacity: 0.9; stroke: #c18546; stroke-opacity: 0.9; stroke-linejoin: miter"/>
     <use xlink:href="#md0a161b3bd" x="114.926087" y="72.774656" style="fill: #c18546; fill-opacity: 0.9; stroke: #c18546; stroke-opacity: 0.9; stroke-linejoin: miter"/>
     <use xlink:href="#md0a161b3bd" x="168.730435" y="73.950047" style="fill: #c18546; fill-opacity: 0.9; stroke: #c18546; stroke-opacity: 0.9; stroke-linejoin: miter"/>
    </g>
   </g>
   <g id="line2d_16">
    <path d="M 61.121739 140.947313 
L 114.926087 96.282469 
L 168.730435 95.107078 
" clip-path="url(#pbddee45344)" style="fill: none; stroke: #197d78; stroke-opacity: 0.9; stroke-width: 1.7; stroke-linecap: square"/>
    <defs>
     <path id="m7aa2ce223d" d="M 0 -2.2 
L -2.2 2.2 
L 2.2 2.2 
z
" style="stroke: #197d78; stroke-opacity: 0.9; stroke-linejoin: miter"/>
    </defs>
    <g clip-path="url(#pbddee45344)">
     <use xlink:href="#m7aa2ce223d" x="61.121739" y="140.947313" style="fill: #197d78; fill-opacity: 0.9; stroke: #197d78; stroke-opacity: 0.9; stroke-linejoin: miter"/>
     <use xlink:href="#m7aa2ce223d" x="114.926087" y="96.282469" style="fill: #197d78; fill-opacity: 0.9; stroke: #197d78; stroke-opacity: 0.9; stroke-linejoin: miter"/>
     <use xlink:href="#m7aa2ce223d" x="168.730435" y="95.107078" style="fill: #197d78; fill-opacity: 0.9; stroke: #197d78; stroke-opacity: 0.9; stroke-linejoin: miter"/>
    </g>
   </g>
   <g id="patch_3">
    <path d="M 39.6 155.052 
L 39.6 46.728 
" style="fill: none; stroke: #bdc5cb; stroke-width: 0.65; stroke-linejoin: miter; stroke-linecap: square"/>
   </g>
   <g id="patch_4">
    <path d="M 39.6 155.052 
L 190.252174 155.052 
" style="fill: none; stroke: #bdc5cb; stroke-width: 0.65; stroke-linejoin: miter; stroke-linecap: square"/>
   </g>
   <g id="text_9">
    <text style="fill: #263746; font: 700 10px 'DejaVu Sans'; text-anchor: start" x="39.6" y="29.728" transform="rotate(-0 39.6 29.728)">A  FM head → GAGA</text>
   </g>
  </g>
  <g id="axes_2">
   <g id="patch_5">
    <path d="M 235.447826 155.052 
L 386.1 155.052 
L 386.1 46.728 
L 235.447826 46.728 
z
" style="fill: #ffffff"/>
   </g>
   <g id="matplotlib.axis_3">
    <g id="xtick_4">
     <g id="line2d_17">
      <g>
       <use xlink:href="#mca79c7ff17" x="256.969565" y="155.052" style="fill: #aeb8c0; stroke: #aeb8c0; stroke-width: 0.8"/>
      </g>
     </g>
     <g id="text_10">
      <text style="font: 8.5px 'DejaVu Sans'; text-anchor: middle" x="256.969565" y="168.010672" transform="rotate(-0 256.969565 168.010672)">Parent</text>
     </g>
    </g>
    <g id="xtick_5">
     <g id="line2d_18">
      <g>
       <use xlink:href="#mca79c7ff17" x="310.773913" y="155.052" style="fill: #aeb8c0; stroke: #aeb8c0; stroke-width: 0.8"/>
      </g>
     </g>
     <g id="text_11">
      <text style="font: 8.5px 'DejaVu Sans'" transform="translate(301.259226 168.010672)">Own</text>
      <text style="font: 8.5px 'DejaVu Sans'" transform="translate(300.162858 177.528813)">head</text>
     </g>
    </g>
    <g id="xtick_6">
     <g id="line2d_19">
      <g>
       <use xlink:href="#mca79c7ff17" x="364.578261" y="155.052" style="fill: #aeb8c0; stroke: #aeb8c0; stroke-width: 0.8"/>
      </g>
     </g>
     <g id="text_12">
      <text style="font: 8.5px 'DejaVu Sans'" transform="translate(340.60162 168.010672)">Transferred</text>
      <text style="font: 8.5px 'DejaVu Sans'" transform="translate(353.967206 177.528813)">head</text>
     </g>
    </g>
   </g>
   <g id="matplotlib.axis_4">
    <g id="ytick_5">
     <g id="line2d_20">
      <path d="M 235.447826 155.052 
L 386.1 155.052 
" clip-path="url(#p08ce4bd84c)" style="fill: none; stroke: #e7ecef; stroke-width: 0.5; stroke-linecap: square"/>
     </g>
     <g id="line2d_21">
      <g>
       <use xlink:href="#mca5e040633" x="235.447826" y="155.052" style="fill: #aeb8c0; stroke: #aeb8c0; stroke-width: 0.8"/>
      </g>
     </g>
    </g>
    <g id="ytick_6">
     <g id="line2d_22">
      <path d="M 235.447826 124.962 
L 386.1 124.962 
" clip-path="url(#p08ce4bd84c)" style="fill: none; stroke: #e7ecef; stroke-width: 0.5; stroke-linecap: square"/>
     </g>
     <g id="line2d_23">
      <g>
       <use xlink:href="#mca5e040633" x="235.447826" y="124.962" style="fill: #aeb8c0; stroke: #aeb8c0; stroke-width: 0.8"/>
      </g>
     </g>
    </g>
    <g id="ytick_7">
     <g id="line2d_24">
      <path d="M 235.447826 94.872 
L 386.1 94.872 
" clip-path="url(#p08ce4bd84c)" style="fill: none; stroke: #e7ecef; stroke-width: 0.5; stroke-linecap: square"/>
     </g>
     <g id="line2d_25">
      <g>
       <use xlink:href="#mca5e040633" x="235.447826" y="94.872" style="fill: #aeb8c0; stroke: #aeb8c0; stroke-width: 0.8"/>
      </g>
     </g>
    </g>
    <g id="ytick_8">
     <g id="line2d_26">
      <path d="M 235.447826 64.782 
L 386.1 64.782 
" clip-path="url(#p08ce4bd84c)" style="fill: none; stroke: #e7ecef; stroke-width: 0.5; stroke-linecap: square"/>
     </g>
     <g id="line2d_27">
      <g>
       <use xlink:href="#mca5e040633" x="235.447826" y="64.782" style="fill: #aeb8c0; stroke: #aeb8c0; stroke-width: 0.8"/>
      </g>
     </g>
    </g>
   </g>
   <g id="line2d_28">
    <path d="M 256.969565 125.079539 
L 310.773913 70.130027 
L 364.578261 67.191551 
" clip-path="url(#p08ce4bd84c)" style="fill: none; stroke-dasharray: 4.07,1.76; stroke-dashoffset: 0; stroke: #bac2c7; stroke-opacity: 0.9; stroke-width: 1.1"/>
    <g clip-path="url(#p08ce4bd84c)">
     <use xlink:href="#mb4e4edc070" x="256.969565" y="125.079539" style="fill: #ffffff; fill-opacity: 0.9; stroke: #bac2c7; stroke-opacity: 0.9"/>
     <use xlink:href="#mb4e4edc070" x="310.773913" y="70.130027" style="fill: #ffffff; fill-opacity: 0.9; stroke: #bac2c7; stroke-opacity: 0.9"/>
     <use xlink:href="#mb4e4edc070" x="364.578261" y="67.191551" style="fill: #ffffff; fill-opacity: 0.9; stroke: #bac2c7; stroke-opacity: 0.9"/>
    </g>
   </g>
   <g id="line2d_29">
    <path d="M 256.969565 132.42573 
L 310.773913 75.713133 
L 364.578261 68.366941 
" clip-path="url(#p08ce4bd84c)" style="fill: none; stroke-dasharray: 4.07,1.76; stroke-dashoffset: 0; stroke: #8e9ba5; stroke-opacity: 0.9; stroke-width: 1.1"/>
    <g clip-path="url(#p08ce4bd84c)">
     <use xlink:href="#md82a9bbef1" x="256.969565" y="132.42573" style="fill: #ffffff; fill-opacity: 0.9; stroke: #8e9ba5; stroke-opacity: 0.9"/>
     <use xlink:href="#md82a9bbef1" x="310.773913" y="75.713133" style="fill: #ffffff; fill-opacity: 0.9; stroke: #8e9ba5; stroke-opacity: 0.9"/>
     <use xlink:href="#md82a9bbef1" x="364.578261" y="68.366941" style="fill: #ffffff; fill-opacity: 0.9; stroke: #8e9ba5; stroke-opacity: 0.9"/>
    </g>
   </g>
   <g id="line2d_30">
    <path d="M 256.969565 144.179637 
L 310.773913 119.790281 
L 364.578261 113.031785 
" clip-path="url(#p08ce4bd84c)" style="fill: none; stroke: #4479a3; stroke-opacity: 0.9; stroke-width: 1.7; stroke-linecap: square"/>
    <g clip-path="url(#p08ce4bd84c)">
     <use xlink:href="#m12ccf46ba5" x="256.969565" y="144.179637" style="fill: #4479a3; fill-opacity: 0.9; stroke: #4479a3; stroke-opacity: 0.9"/>
     <use xlink:href="#m12ccf46ba5" x="310.773913" y="119.790281" style="fill: #4479a3; fill-opacity: 0.9; stroke: #4479a3; stroke-opacity: 0.9"/>
     <use xlink:href="#m12ccf46ba5" x="364.578261" y="113.031785" style="fill: #4479a3; fill-opacity: 0.9; stroke: #4479a3; stroke-opacity: 0.9"/>
    </g>
   </g>
   <g id="line2d_31">
    <path d="M 256.969565 136.24575 
L 310.773913 80.708543 
L 364.578261 76.300828 
" clip-path="url(#p08ce4bd84c)" style="fill: none; stroke: #c18546; stroke-opacity: 0.9; stroke-width: 1.7; stroke-linecap: square"/>
    <g clip-path="url(#p08ce4bd84c)">
     <use xlink:href="#md0a161b3bd" x="256.969565" y="136.24575" style="fill: #c18546; fill-opacity: 0.9; stroke: #c18546; stroke-opacity: 0.9; stroke-linejoin: miter"/>
     <use xlink:href="#md0a161b3bd" x="310.773913" y="80.708543" style="fill: #c18546; fill-opacity: 0.9; stroke: #c18546; stroke-opacity: 0.9; stroke-linejoin: miter"/>
     <use xlink:href="#md0a161b3bd" x="364.578261" y="76.300828" style="fill: #c18546; fill-opacity: 0.9; stroke: #c18546; stroke-opacity: 0.9; stroke-linejoin: miter"/>
    </g>
   </g>
   <g id="line2d_32">
    <path d="M 256.969565 128.899559 
L 310.773913 67.779246 
L 364.578261 65.428465 
" clip-path="url(#p08ce4bd84c)" style="fill: none; stroke: #197d78; stroke-opacity: 0.9; stroke-width: 1.7; stroke-linecap: square"/>
    <g clip-path="url(#p08ce4bd84c)">
     <use xlink:href="#m7aa2ce223d" x="256.969565" y="128.899559" style="fill: #197d78; fill-opacity: 0.9; stroke: #197d78; stroke-opacity: 0.9; stroke-linejoin: miter"/>
     <use xlink:href="#m7aa2ce223d" x="310.773913" y="67.779246" style="fill: #197d78; fill-opacity: 0.9; stroke: #197d78; stroke-opacity: 0.9; stroke-linejoin: miter"/>
     <use xlink:href="#m7aa2ce223d" x="364.578261" y="65.428465" style="fill: #197d78; fill-opacity: 0.9; stroke: #197d78; stroke-opacity: 0.9; stroke-linejoin: miter"/>
    </g>
   </g>
   <g id="patch_6">
    <path d="M 235.447826 155.052 
L 235.447826 46.728 
" style="fill: none; stroke: #bdc5cb; stroke-width: 0.65; stroke-linejoin: miter; stroke-linecap: square"/>
   </g>
   <g id="patch_7">
    <path d="M 235.447826 155.052 
L 386.1 155.052 
" style="fill: none; stroke: #bdc5cb; stroke-width: 0.65; stroke-linejoin: miter; stroke-linecap: square"/>
   </g>
   <g id="text_13">
    <text style="fill: #263746; font: 700 10px 'DejaVu Sans'; text-anchor: start" x="235.447826" y="29.728" transform="rotate(-0 235.447826 29.728)">B  GAGA head → FM</text>
   </g>
  </g>
  <g id="legend_1">
   <g id="line2d_33">
    <path d="M 106.4475 195.42625 
L 112.0475 195.42625 
L 117.6475 195.42625 
" style="fill: none; stroke-dasharray: 5.55,2.4; stroke-dashoffset: 0; stroke: #9aa6af; stroke-width: 1.5"/>
    <defs>
     <path id="mcf2b1480a1" d="M 0 3 
C 0.795609 3 1.55874 2.683901 2.12132 2.12132 
C 2.683901 1.55874 3 0.795609 3 0 
C 3 -0.795609 2.683901 -1.55874 2.12132 -2.12132 
C 1.55874 -2.683901 0.795609 -3 0 -3 
C -0.795609 -3 -1.55874 -2.683901 -2.12132 -2.12132 
C -2.683901 -1.55874 -3 -0.795609 -3 0 
C -3 0.795609 -2.683901 1.55874 -2.12132 2.12132 
C -1.55874 2.683901 -0.795609 3 0 3 
z
" style="stroke: #9aa6af"/>
    </defs>
    <g>
     <use xlink:href="#mcf2b1480a1" x="112.0475" y="195.42625" style="fill: #ffffff; stroke: #9aa6af"/>
    </g>
   </g>
   <g id="text_14">
    <text style="fill: #263746; font: 8px 'DejaVu Sans'; text-anchor: start" x="124.0475" y="198.22625" transform="rotate(-0 124.0475 198.22625)">Earlier fits</text>
   </g>
   <g id="line2d_34">
    <path d="M 174.435 195.42625 
L 180.035 195.42625 
L 185.635 195.42625 
" style="fill: none; stroke: #4479a3; stroke-width: 1.5; stroke-linecap: square"/>
    <defs>
     <path id="m871cb176e3" d="M 0 3 
C 0.795609 3 1.55874 2.683901 2.12132 2.12132 
C 2.683901 1.55874 3 0.795609 3 0 
C 3 -0.795609 2.683901 -1.55874 2.12132 -2.12132 
C 1.55874 -2.683901 0.795609 -3 0 -3 
C -0.795609 -3 -1.55874 -2.683901 -2.12132 -2.12132 
C -2.683901 -1.55874 -3 -0.795609 -3 0 
C -3 0.795609 -2.683901 1.55874 -2.12132 2.12132 
C -1.55874 2.683901 -0.795609 3 0 3 
z
" style="stroke: #4479a3"/>
    </defs>
    <g>
     <use xlink:href="#m871cb176e3" x="180.035" y="195.42625" style="fill: #4479a3; stroke: #4479a3"/>
    </g>
   </g>
   <g id="text_15">
    <text style="fill: #263746; font: 8px 'DejaVu Sans'; text-anchor: start" x="192.035" y="198.22625" transform="rotate(-0 192.035 198.22625)">Fit 3</text>
   </g>
   <g id="line2d_35">
    <path d="M 218.6475 195.42625 
L 224.2475 195.42625 
L 229.8475 195.42625 
" style="fill: none; stroke: #c18546; stroke-width: 1.5; stroke-linecap: square"/>
    <defs>
     <path id="m1a13eafa55" d="M -3 3 
L 3 3 
L 3 -3 
L -3 -3 
z
" style="stroke: #c18546; stroke-linejoin: miter"/>
    </defs>
    <g>
     <use xlink:href="#m1a13eafa55" x="224.2475" y="195.42625" style="fill: #c18546; stroke: #c18546; stroke-linejoin: miter"/>
    </g>
   </g>
   <g id="text_16">
    <text style="fill: #263746; font: 8px 'DejaVu Sans'; text-anchor: start" x="236.2475" y="198.22625" transform="rotate(-0 236.2475 198.22625)">Fit 4</text>
   </g>
   <g id="line2d_36">
    <path d="M 262.86 195.42625 
L 268.46 195.42625 
L 274.06 195.42625 
" style="fill: none; stroke: #197d78; stroke-width: 1.5; stroke-linecap: square"/>
    <defs>
     <path id="m04e10e621a" d="M 0 -3 
L -3 3 
L 3 3 
z
" style="stroke: #197d78; stroke-linejoin: miter"/>
    </defs>
    <g>
     <use xlink:href="#m04e10e621a" x="268.46" y="195.42625" style="fill: #197d78; stroke: #197d78; stroke-linejoin: miter"/>
    </g>
   </g>
   <g id="text_17">
    <text style="fill: #263746; font: 8px 'DejaVu Sans'; text-anchor: start" x="280.46" y="198.22625" transform="rotate(-0 280.46 198.22625)">Fit 5</text>
   </g>
  </g>
 </g>
 <defs>
  <clipPath id="pbddee45344">
   <rect x="39.6" y="46.728" width="150.652174" height="108.324"/>
  </clipPath>
  <clipPath id="p08ce4bd84c">
   <rect x="235.447826" y="46.728" width="150.652174" height="108.324"/>
  </clipPath>
 </defs>
</svg>
