<?xml version='1.0' encoding='UTF-8'?>
<!DOCTYPE svg PUBLIC "-//W3C//DTD SVG 1.1//EN" "http://www.w3.org/Graphics/SVG/1.1/DTD/svg11.dtd">
<svg xmlns:xlink="http://www.w3.org/1999/xlink" xmlns="http://www.w3.org/2000/svg" width="396pt" height="219.59999999999997pt" viewBox="0 0 396 219.6" version="1.1">
 <metadata>
  <rdf:RDF xmlns:dc="http://purl.org/dc/elements/1.1/" xmlns:cc="http://creativecommons.org/ns#" xmlns:rdf="http://www.w3.org/1999/02/22-rdf-syntax-ns#">
   <cc:Work>
    <dc:type rdf:resource="http://purl.org/dc/dcmitype/StillImage"/>
    <dc:date>2026-09-24T19:02:03.264882</dc:date>
    <dc:format>image/svg+xml</dc:format>
    <dc:creator>
     <cc:Agent>
      <dc:title>Matplotlib v3.8.2, https://matplotlib.org/</dc:title>
     </cc:Agent>
    </dc:creator>
   </cc:Work>
  </rdf:RDF>
 </metadata>
 <defs>
  <style type="text/css">*{stroke-linejoin: round; stroke-linecap: butt}</style>
 </defs>
 <g id="figure_1">
  <g id="patch_1">
   <path d="M 0 219.6  L 396 219.6  L 396 0  L 0 0  z " style="fill: #ffffff"/>
  </g>
  <g id="axes_1">
   <g id="patch_2">
    <path d="M 39.6 151.524  L 174.24 151.524  L 174.24 43.92  L 39.6 43.92  z " style="fill: #ffffff"/>
   </g>
   <g id="matplotlib.axis_1">
    <g id="xtick_1">
     <g id="line2d_1">
      <defs>
       <path id="m82c90c3f8f" d="M 0 0  L 0 3  " style="stroke: #aeb8c0; stroke-width: 0.8"/>
      </defs>
      <g>
       <use xlink:href="#m82c90c3f8f" x="60.17" y="151.524" style="fill: #aeb8c0; stroke: #aeb8c0; stroke-width: 0.8"/>
      </g>
     </g>
     </g>
    <g id="xtick_2">
     <g id="line2d_2">
      <g>
       <use xlink:href="#m82c90c3f8f" x="153.67" y="151.524" style="fill: #aeb8c0; stroke: #aeb8c0; stroke-width: 0.8"/>
      </g>
     </g>
     </g>
    </g>
   <g id="matplotlib.axis_2">
    <g id="ytick_1">
     <g id="line2d_3">
      <path d="M 39.6 151.524  L 174.24 151.524  " clip-path="url(#pbb4179d67f)" style="fill: none; stroke: #e7ecef; stroke-width: 0.5; stroke-linecap: square"/>
     </g>
     <g id="line2d_4">
      <defs>
       <path id="m26c70a6225" d="M 0 0  L -3 0  " style="stroke: #aeb8c0; stroke-width: 0.8"/>
      </defs>
      <g>
       <use xlink:href="#m26c70a6225" x="39.6" y="151.524" style="fill: #aeb8c0; stroke: #aeb8c0; stroke-width: 0.8"/>
      </g>
     </g>
     </g>
    <g id="ytick_2">
     <g id="line2d_5">
      <path d="M 39.6 123.207158  L 174.24 123.207158  " clip-path="url(#pbb4179d67f)" style="fill: none; stroke: #e7ecef; stroke-width: 0.5; stroke-linecap: square"/>
     </g>
     <g id="line2d_6">
      <g>
       <use xlink:href="#m26c70a6225" x="39.6" y="123.207158" style="fill: #aeb8c0; stroke: #aeb8c0; stroke-width: 0.8"/>
      </g>
     </g>
     </g>
    <g id="ytick_3">
     <g id="line2d_7">
      <path d="M 39.6 94.890316  L 174.24 94.890316  " clip-path="url(#pbb4179d67f)" style="fill: none; stroke: #e7ecef; stroke-width: 0.5; stroke-linecap: square"/>
     </g>
     <g id="line2d_8">
      <g>
       <use xlink:href="#m26c70a6225" x="39.6" y="94.890316" style="fill: #aeb8c0; stroke: #aeb8c0; stroke-width: 0.8"/>
      </g>
     </g>
     </g>
    <g id="ytick_4">
     <g id="line2d_9">
      <path d="M 39.6 66.573474  L 174.24 66.573474  " clip-path="url(#pbb4179d67f)" style="fill: none; stroke: #e7ecef; stroke-width: 0.5; stroke-linecap: square"/>
     </g>
     <g id="line2d_10">
      <g>
       <use xlink:href="#m26c70a6225" x="39.6" y="66.573474" style="fill: #aeb8c0; stroke: #aeb8c0; stroke-width: 0.8"/>
      </g>
     </g>
     </g>
    </g>
   <g id="line2d_11">
    <path d="M 60.17 135.761695  L 153.67 82.114553  " clip-path="url(#pbb4179d67f)" style="fill: none; stroke: #87939f; stroke-opacity: 0.35; stroke-width: 0.7; stroke-linecap: square"/>
   </g>
   <g id="line2d_12">
    <path d="M 60.17 131.890252  L 153.67 78.24311  " clip-path="url(#pbb4179d67f)" style="fill: none; stroke: #87939f; stroke-opacity: 0.35; stroke-width: 0.7; stroke-linecap: square"/>
   </g>
   <g id="line2d_13">
    <path d="M 60.17 133.825974  L 153.67 80.178831  " clip-path="url(#pbb4179d67f)" style="fill: none; stroke: #87939f; stroke-width: 1.7; stroke-linecap: square"/>
    <defs>
     <path id="md7f8b2e98b" d="M -2.5 2.5  L 2.5 2.5  L 2.5 -2.5  L -2.5 -2.5  z " style="stroke: #87939f; stroke-linejoin: miter"/>
    </defs>
    <g clip-path="url(#pbb4179d67f)">
     <use xlink:href="#md7f8b2e98b" x="60.17" y="133.825974" style="fill: #87939f; stroke: #87939f; stroke-linejoin: miter"/>
     <use xlink:href="#md7f8b2e98b" x="153.67" y="80.178831" style="fill: #87939f; stroke: #87939f; stroke-linejoin: miter"/>
    </g>
   </g>
   <g id="line2d_14">
    <path d="M 60.17 131.890252  L 153.67 68.564502  " clip-path="url(#pbb4179d67f)" style="fill: none; stroke: #197d78; stroke-opacity: 0.35; stroke-width: 0.7; stroke-linecap: square"/>
   </g>
   <g id="line2d_15">
    <path d="M 60.17 130.231062  L 153.67 65.799185  " clip-path="url(#pbb4179d67f)" style="fill: none; stroke: #197d78; stroke-opacity: 0.35; stroke-width: 0.7; stroke-linecap: square"/>
   </g>
   <g id="line2d_16">
    <path d="M 60.17 131.060657  L 153.67 67.181843  " clip-path="url(#pbb4179d67f)" style="fill: none; stroke: #197d78; stroke-width: 1.7; stroke-linecap: square"/>
    <defs>
     <path id="m5397ae89c1" d="M 0 2.5  C 0.663008 2.5 1.29895 2.236584 1.767767 1.767767  C 2.236584 1.29895 2.5 0.663008 2.5 0  C 2.5 -0.663008 2.236584 -1.29895 1.767767 -1.767767  C 1.29895 -2.236584 0.663008 -2.5 0 -2.5  C -0.663008 -2.5 -1.29895 -2.236584 -1.767767 -1.767767  C -2.236584 -1.29895 -2.5 -0.663008 -2.5 0  C -2.5 0.663008 -2.236584 1.29895 -1.767767 1.767767  C -1.29895 2.236584 -0.663008 2.5 0 2.5  z " style="stroke: #197d78"/>
    </defs>
    <g clip-path="url(#pbb4179d67f)">
     <use xlink:href="#m5397ae89c1" x="60.17" y="131.060657" style="fill: #197d78; stroke: #197d78"/>
     <use xlink:href="#m5397ae89c1" x="153.67" y="67.181843" style="fill: #197d78; stroke: #197d78"/>
    </g>
   </g>
   <g id="patch_3">
    <path d="M 39.6 151.524  L 39.6 43.92  " style="fill: none; stroke: #bdc5cb; stroke-width: 0.65; stroke-linejoin: miter; stroke-linecap: square"/>
   </g>
   <g id="patch_4">
    <path d="M 39.6 151.524  L 174.24 151.524  " style="fill: none; stroke: #bdc5cb; stroke-width: 0.65; stroke-linejoin: miter; stroke-linecap: square"/>
   </g>
   </g>
  <g id="axes_2">
   <g id="patch_5">
    <path d="M 245.52 151.524  L 384.12 151.524  L 384.12 43.92  L 245.52 43.92  z " style="fill: #ffffff"/>
   </g>
   <g id="matplotlib.axis_3">
    <g id="xtick_3">
     <g id="line2d_17">
      <path d="M 267.404211 151.524  L 267.404211 43.92  " clip-path="url(#pd25fec0d1f)" style="fill: none; stroke: #e7ecef; stroke-width: 0.5; stroke-linecap: square"/>
     </g>
     <g id="line2d_18">
      <g>
       <use xlink:href="#m82c90c3f8f" x="267.404211" y="151.524" style="fill: #aeb8c0; stroke: #aeb8c0; stroke-width: 0.8"/>
      </g>
     </g>
     </g>
    <g id="xtick_4">
     <g id="line2d_19">
      <path d="M 325.762105 151.524  L 325.762105 43.92  " clip-path="url(#pd25fec0d1f)" style="fill: none; stroke: #e7ecef; stroke-width: 0.5; stroke-linecap: square"/>
     </g>
     <g id="line2d_20">
      <g>
       <use xlink:href="#m82c90c3f8f" x="325.762105" y="151.524" style="fill: #aeb8c0; stroke: #aeb8c0; stroke-width: 0.8"/>
      </g>
     </g>
     </g>
    <g id="xtick_5">
     <g id="line2d_21">
      <path d="M 384.12 151.524  L 384.12 43.92  " clip-path="url(#pd25fec0d1f)" style="fill: none; stroke: #e7ecef; stroke-width: 0.5; stroke-linecap: square"/>
     </g>
     <g id="line2d_22">
      <g>
       <use xlink:href="#m82c90c3f8f" x="384.12" y="151.524" style="fill: #aeb8c0; stroke: #aeb8c0; stroke-width: 0.8"/>
      </g>
     </g>
     </g>
    </g>
   <g id="matplotlib.axis_4">
    <g id="ytick_5">
     <g id="line2d_23">
      <g>
       <use xlink:href="#m26c70a6225" x="245.52" y="125.904" style="fill: #aeb8c0; stroke: #aeb8c0; stroke-width: 0.8"/>
      </g>
     </g>
     </g>
    <g id="ytick_6">
     <g id="line2d_24">
      <g>
       <use xlink:href="#m26c70a6225" x="245.52" y="74.664" style="fill: #aeb8c0; stroke: #aeb8c0; stroke-width: 0.8"/>
      </g>
     </g>
     </g>
    </g>
   <g id="LineCollection_1">
    <path d="M 257.430938 125.904  L 305.872549 125.904  " clip-path="url(#pd25fec0d1f)" style="fill: none; stroke: #87939f; stroke-width: 1.3"/>
   </g>
   <g id="line2d_25">
    <defs>
     <path id="mcdfd975ed5" d="M 0 3  L 0 -3  " style="stroke: #87939f"/>
    </defs>
    <g clip-path="url(#pd25fec0d1f)">
     <use xlink:href="#mcdfd975ed5" x="257.430938" y="125.904" style="fill: #87939f; stroke: #87939f"/>
    </g>
   </g>
   <g id="line2d_26">
    <g clip-path="url(#pd25fec0d1f)">
     <use xlink:href="#mcdfd975ed5" x="305.872549" y="125.904" style="fill: #87939f; stroke: #87939f"/>
    </g>
   </g>
   <g id="LineCollection_2">
    <path d="M 296.611653 74.664  L 371.411201 74.664  " clip-path="url(#pd25fec0d1f)" style="fill: none; stroke: #197d78; stroke-width: 1.3"/>
   </g>
   <g id="line2d_27">
    <defs>
     <path id="m2d0f56918d" d="M 0 3  L 0 -3  " style="stroke: #197d78"/>
    </defs>
    <g clip-path="url(#pd25fec0d1f)">
     <use xlink:href="#m2d0f56918d" x="296.611653" y="74.664" style="fill: #197d78; stroke: #197d78"/>
    </g>
   </g>
   <g id="line2d_28">
    <g clip-path="url(#pd25fec0d1f)">
     <use xlink:href="#m2d0f56918d" x="371.411201" y="74.664" style="fill: #197d78; stroke: #197d78"/>
    </g>
   </g>
   <g id="line2d_29">
    <path d="M 267.404211 151.524  L 267.404211 43.92  " clip-path="url(#pd25fec0d1f)" style="fill: none; stroke-dasharray: 2.96,1.28; stroke-dashoffset: 0; stroke: #b6c0c8; stroke-width: 0.8"/>
   </g>
   <g id="line2d_30">
    <defs>
     <path id="m1b1786acb4" d="M 0 2.5  C 0.663008 2.5 1.29895 2.236584 1.767767 1.767767  C 2.236584 1.29895 2.5 0.663008 2.5 0  C 2.5 -0.663008 2.236584 -1.29895 1.767767 -1.767767  C 1.29895 -2.236584 0.663008 -2.5 0 -2.5  C -0.663008 -2.5 -1.29895 -2.236584 -1.767767 -1.767767  C -2.236584 -1.29895 -2.5 -0.663008 -2.5 0  C -2.5 0.663008 -2.236584 1.29895 -1.767767 1.767767  C -1.29895 2.236584 -0.663008 2.5 0 2.5  z " style="stroke: #87939f"/>
    </defs>
    <g clip-path="url(#pd25fec0d1f)">
     <use xlink:href="#m1b1786acb4" x="281.651743" y="125.904" style="fill: #87939f; stroke: #87939f"/>
    </g>
   </g>
   <g id="line2d_31">
    <g clip-path="url(#pd25fec0d1f)">
     <use xlink:href="#m5397ae89c1" x="334.367615" y="74.664" style="fill: #197d78; stroke: #197d78"/>
    </g>
   </g>
   <g id="patch_6">
    <path d="M 245.52 151.524  L 245.52 43.92  " style="fill: none; stroke: #bdc5cb; stroke-width: 0.65; stroke-linejoin: miter; stroke-linecap: square"/>
   </g>
   <g id="patch_7">
    <path d="M 245.52 151.524  L 384.12 151.524  " style="fill: none; stroke: #bdc5cb; stroke-width: 0.65; stroke-linejoin: miter; stroke-linecap: square"/>
   </g>
   </g>
  <g id="legend_1">
   <g id="line2d_32">
    <path d="M 94.853828 203.913266  L 103.353828 203.913266  L 111.853828 203.913266  " style="fill: none; stroke: #87939f; stroke-width: 1.5; stroke-linecap: square"/>
    <defs>
     <path id="m990a50c8fd" d="M -3 3  L 3 3  L 3 -3  L -3 -3  z " style="stroke: #87939f; stroke-linejoin: miter"/>
    </defs>
    <g>
     <use xlink:href="#m990a50c8fd" x="103.353828" y="203.913266" style="fill: #87939f; stroke: #87939f; stroke-linejoin: miter"/>
    </g>
   </g>
   <g id="line2d_33">
    <path d="M 205.572969 203.913266  L 214.072969 203.913266  L 222.572969 203.913266  " style="fill: none; stroke: #197d78; stroke-width: 1.5; stroke-linecap: square"/>
    <defs>
     <path id="mf2627ba2af" d="M 0 3  C 0.795609 3 1.55874 2.683901 2.12132 2.12132  C 2.683901 1.55874 3 0.795609 3 0  C 3 -0.795609 2.683901 -1.55874 2.12132 -2.12132  C 1.55874 -2.683901 0.795609 -3 0 -3  C -0.795609 -3 -1.55874 -2.683901 -2.12132 -2.12132  C -2.683901 -1.55874 -3 -0.795609 -3 0  C -3 0.795609 -2.683901 1.55874 -2.12132 2.12132  C -1.55874 2.683901 -0.795609 3 0 3  z " style="stroke: #197d78"/>
    </defs>
    <g>
     <use xlink:href="#mf2627ba2af" x="214.072969" y="203.913266" style="fill: #197d78; stroke: #197d78"/>
    </g>
   </g>
   </g>
 </g>
 <defs>
  <clipPath id="pbb4179d67f">
   <rect x="39.6" y="43.92" width="134.64" height="107.604"/>
  </clipPath>
  <clipPath id="pd25fec0d1f">
   <rect x="245.52" y="43.92" width="138.6" height="107.604"/>
  </clipPath>
 </defs>
<g transform="scale(0.75)"><g transform="matrix(1.0,0.0,0.0,1.0,0.0,0.0)"><text id="text3" xml:space="preserve" transform="matrix(1.3333333,0,0,1.3333333,71.768333,219.30283)" style="font-family:DejaVu Sans;font-size:9.000000px;font-weight:normal"><tspan id="tspan3" style="font-variant:normal;font-weight:normal;font-size:8.500000px;font-family:DejaVu Sans;writing-mode:lr-tb;fill:#000000;fill-opacity:1;fill-rule:nonzero;stroke:none" x="0" y="0">Off</tspan></text>
    </g><g transform="matrix(1.0,0.0,0.0,1.0,0.0,0.0)"><text id="text4" xml:space="preserve" transform="matrix(1.3333333,0,0,1.3333333,196.84125,219.30283)" style="font-family:DejaVu Sans;font-size:9.000000px;font-weight:normal"><tspan id="tspan4" style="font-variant:normal;font-weight:normal;font-size:8.500000px;font-family:DejaVu Sans;writing-mode:lr-tb;fill:#000000;fill-opacity:1;fill-rule:nonzero;stroke:none" x="0" y="0">On</tspan></text>
    </g><g transform="matrix(1.0,0.0,0.0,1.0,0.0,0.0)"><text id="text5" xml:space="preserve" transform="matrix(1.3333333,0,0,1.3333333,80.685,241.44867)" style="font-family:DejaVu Sans;font-size:9.000000px;font-weight:normal"><tspan id="tspan5" style="font-variant:normal;font-weight:normal;font-size:9.000000px;font-family:DejaVu Sans;writing-mode:lr-tb;fill:#263746;fill-opacity:1;fill-rule:nonzero;stroke:none" x="0" dx="0 0 0 0 0 0 0 0 0 0 0 0 -0.15625 -0.1875" y="0">Endpoint corrections</tspan></text>
    </g><g transform="matrix(1.0,0.0,0.0,1.0,0.0,0.0)"><text id="text7" xml:space="preserve" transform="matrix(1.3333333,0,0,1.3333333,36.925,206.33408)" style="font-family:DejaVu Sans;font-size:9.000000px;font-weight:normal"><tspan id="tspan7" style="font-variant:normal;font-weight:normal;font-size:8.500000px;font-family:DejaVu Sans;writing-mode:lr-tb;fill:#000000;fill-opacity:1;fill-rule:nonzero;stroke:none" x="0" y="0">0</tspan></text>
    </g><g transform="matrix(1.0,0.0,0.0,1.0,0.0,0.0)"><text id="text10" xml:space="preserve" transform="matrix(1.3333333,0,0,1.3333333,29.716667,168.57829)" style="font-family:DejaVu Sans;font-size:9.000000px;font-weight:normal"><tspan id="tspan10" style="font-variant:normal;font-weight:normal;font-size:8.500000px;font-family:DejaVu Sans;writing-mode:lr-tb;fill:#000000;fill-opacity:1;fill-rule:nonzero;stroke:none" x="0" y="0">10</tspan></text>
    </g><g transform="matrix(1.0,0.0,0.0,1.0,0.0,0.0)"><text id="text13" xml:space="preserve" transform="matrix(1.3333333,0,0,1.3333333,29.716667,130.8225)" style="font-family:DejaVu Sans;font-size:9.000000px;font-weight:normal"><tspan id="tspan13" style="font-variant:normal;font-weight:normal;font-size:8.500000px;font-family:DejaVu Sans;writing-mode:lr-tb;fill:#000000;fill-opacity:1;fill-rule:nonzero;stroke:none" x="0" y="0">20</tspan></text>
    </g><g transform="matrix(1.0,0.0,0.0,1.0,0.0,0.0)"><text id="text16" xml:space="preserve" transform="matrix(1.3333333,0,0,1.3333333,29.716667,93.066715)" style="font-family:DejaVu Sans;font-size:9.000000px;font-weight:normal"><tspan id="tspan16" style="font-variant:normal;font-weight:normal;font-size:8.500000px;font-family:DejaVu Sans;writing-mode:lr-tb;fill:#000000;fill-opacity:1;fill-rule:nonzero;stroke:none" x="0" y="0">30</tspan></text>
    </g><g transform="matrix(1.0,0.0,0.0,1.0,0.0,0.0)"><text id="text17" xml:space="preserve" transform="matrix(0,-1.3333333,1.3333333,0,17.883333,172.13975)" style="font-family:DejaVu Sans;font-size:9.000000px;font-weight:normal"><tspan id="tspan17" style="font-variant:normal;font-weight:normal;font-size:9.000000px;font-family:DejaVu Sans;writing-mode:lr-tb;fill:#263746;fill-opacity:1;fill-rule:nonzero;stroke:none" x="0" y="0">Joint yield (%)</tspan></text>
    </g><g transform="matrix(1.0,0.0,0.0,1.0,0.0,0.0)"><text id="text40" xml:space="preserve" transform="matrix(1.3333333,0,0,1.3333333,67.612083,198.43463)" style="font-family:DejaVu Sans;font-size:9.000000px;font-weight:normal"><tspan id="tspan40" style="font-variant:normal;font-weight:normal;font-size:8.500000px;font-family:DejaVu Sans;writing-mode:lr-tb;fill:#87939f;fill-opacity:1;fill-rule:nonzero;stroke:none" x="0" y="0">6.25</tspan></text>
    </g><g transform="matrix(1.0,0.0,0.0,1.0,0.0,0.0)"><text id="text41" xml:space="preserve" transform="matrix(1.3333333,0,0,1.3333333,188.67458,126.90511)" style="font-family:DejaVu Sans;font-size:9.000000px;font-weight:normal"><tspan id="tspan41" style="font-variant:normal;font-weight:normal;font-size:8.500000px;font-family:DejaVu Sans;writing-mode:lr-tb;fill:#87939f;fill-opacity:1;fill-rule:nonzero;stroke:none" x="0" y="0">25.20</tspan></text>
    </g><g transform="matrix(1.0,0.0,0.0,1.0,0.0,0.0)"><text id="text42" xml:space="preserve" transform="matrix(1.3333333,0,0,1.3333333,67.612083,164.08088)" style="font-family:DejaVu Sans;font-size:9.000000px;font-weight:normal"><tspan id="tspan42" style="font-variant:normal;font-weight:normal;font-size:8.500000px;font-family:DejaVu Sans;writing-mode:lr-tb;fill:#197d78;fill-opacity:1;fill-rule:nonzero;stroke:none" x="0" y="0">7.23</tspan></text>
    </g><g transform="matrix(1.0,0.0,0.0,1.0,0.0,0.0)"><text id="text43" xml:space="preserve" transform="matrix(1.3333333,0,0,1.3333333,188.67458,78.909124)" style="font-family:DejaVu Sans;font-size:9.000000px;font-weight:normal"><tspan id="tspan43" style="font-variant:normal;font-weight:normal;font-size:8.500000px;font-family:DejaVu Sans;writing-mode:lr-tb;fill:#197d78;fill-opacity:1;fill-rule:nonzero;stroke:none" x="0" y="0">29.79</tspan></text>
    </g><g transform="matrix(1.0,0.0,0.0,1.0,0.0,0.0)"><text id="text44" xml:space="preserve" transform="matrix(1.3333333,0,0,1.3333333,52.8,35.893333)" style="font-family:DejaVu Sans;font-size:9.000000px;font-weight:normal"><tspan id="tspan44" style="font-variant:normal;font-weight:700;font-size:10.000000px;font-family:DejaVu Sans;writing-mode:lr-tb;fill:#263746;fill-opacity:1;fill-rule:nonzero;stroke:none" x="0" dx="0 0 3.48 -0.40625" y="0">A Four configurations</tspan></text>
    </g><g transform="matrix(1.0,0.0,0.0,1.0,0.0,0.0)"><text id="text47" xml:space="preserve" transform="matrix(1.3333333,0,0,1.3333333,352.93478,219.30283)" style="font-family:DejaVu Sans;font-size:9.000000px;font-weight:normal"><tspan id="tspan47" style="font-variant:normal;font-weight:normal;font-size:8.500000px;font-family:DejaVu Sans;writing-mode:lr-tb;fill:#000000;fill-opacity:1;fill-rule:nonzero;stroke:none" x="0" y="0">0</tspan></text>
    </g><g transform="matrix(1.0,0.0,0.0,1.0,0.0,0.0)"><text id="text50" xml:space="preserve" transform="matrix(1.3333333,0,0,1.3333333,430.74531,219.30283)" style="font-family:DejaVu Sans;font-size:9.000000px;font-weight:normal"><tspan id="tspan50" style="font-variant:normal;font-weight:normal;font-size:8.500000px;font-family:DejaVu Sans;writing-mode:lr-tb;fill:#000000;fill-opacity:1;fill-rule:nonzero;stroke:none" x="0" y="0">4</tspan></text>
    </g><g transform="matrix(1.0,0.0,0.0,1.0,0.0,0.0)"><text id="text53" xml:space="preserve" transform="matrix(1.3333333,0,0,1.3333333,508.55583,219.30283)" style="font-family:DejaVu Sans;font-size:9.000000px;font-weight:normal"><tspan id="tspan53" style="font-variant:normal;font-weight:normal;font-size:8.500000px;font-family:DejaVu Sans;writing-mode:lr-tb;fill:#000000;fill-opacity:1;fill-rule:nonzero;stroke:none" x="0" y="0">8</tspan></text>
    </g><g transform="matrix(1.0,0.0,0.0,1.0,0.0,0.0)"><text id="text54" xml:space="preserve" transform="matrix(1.3333333,0,0,1.3333333,370.10375,241.44867)" style="font-family:DejaVu Sans;font-size:9.000000px;font-weight:normal"><tspan id="tspan54" style="font-variant:normal;font-weight:normal;font-size:9.000000px;font-family:DejaVu Sans;writing-mode:lr-tb;fill:#263746;fill-opacity:1;fill-rule:nonzero;stroke:none" x="0" dx="0 0 0 0 -0.1875" y="0">Source gain (pp)</tspan></text>
    </g><g transform="matrix(1.0,0.0,0.0,1.0,0.0,0.0)"><text id="text55" xml:space="preserve" transform="matrix(1.3333333,0,0,1.3333333,301.77667,172.17408)" style="font-family:DejaVu Sans;font-size:9.000000px;font-weight:normal"><tspan id="tspan55" style="font-variant:normal;font-weight:normal;font-size:8.500000px;font-family:DejaVu Sans;writing-mode:lr-tb;fill:#000000;fill-opacity:1;fill-rule:nonzero;stroke:none" x="0" y="0">Off</tspan></text>
    </g><g transform="matrix(1.0,0.0,0.0,1.0,0.0,0.0)"><text id="text56" xml:space="preserve" transform="matrix(1.3333333,0,0,1.3333333,302.58917,103.85408)" style="font-family:DejaVu Sans;font-size:9.000000px;font-weight:normal"><tspan id="tspan56" style="font-variant:normal;font-weight:normal;font-size:8.500000px;font-family:DejaVu Sans;writing-mode:lr-tb;fill:#000000;fill-opacity:1;fill-rule:nonzero;stroke:none" x="0" y="0">On</tspan></text>
    </g><g transform="matrix(1.0,0.0,0.0,1.0,0.0,0.0)"><text id="text57" xml:space="preserve" transform="matrix(0,-1.3333333,1.3333333,0,287.27667,192.171)" style="font-family:DejaVu Sans;font-size:9.000000px;font-weight:normal"><tspan id="tspan57" style="font-variant:normal;font-weight:normal;font-size:9.000000px;font-family:DejaVu Sans;writing-mode:lr-tb;fill:#263746;fill-opacity:1;fill-rule:nonzero;stroke:none" x="0" dx="0 0 0 0 0 0 0 0 0 0 0 0 -0.15625 -0.1875" y="0">Endpoint corrections</tspan></text>
    </g><g transform="matrix(1.0,0.0,0.0,1.0,0.0,0.0)"><text id="text76" xml:space="preserve" transform="matrix(1.3333333,0,0,1.3333333,355.69191,153.20533)" style="font-family:DejaVu Sans;font-size:9.000000px;font-weight:normal"><tspan id="tspan76" style="font-variant:normal;font-weight:700;font-size:9.000000px;font-family:DejaVu Sans;writing-mode:lr-tb;fill:#87939f;fill-opacity:1;fill-rule:nonzero;stroke:none" x="0" y="0">+0.98</tspan></text>
    </g><g transform="matrix(1.0,0.0,0.0,1.0,0.0,0.0)"><text id="text77" xml:space="preserve" transform="matrix(1.3333333,0,0,1.3333333,425.97974,84.885333)" style="font-family:DejaVu Sans;font-size:9.000000px;font-weight:normal"><tspan id="tspan77" style="font-variant:normal;font-weight:700;font-size:9.000000px;font-family:DejaVu Sans;writing-mode:lr-tb;fill:#197d78;fill-opacity:1;fill-rule:nonzero;stroke:none" x="0" y="0">+4.59</tspan></text>
    </g><g transform="matrix(1.0,0.0,0.0,1.0,0.0,0.0)"><text id="text78" xml:space="preserve" transform="matrix(1.3333333,0,0,1.3333333,327.36,35.893333)" style="font-family:DejaVu Sans;font-size:9.000000px;font-weight:normal"><tspan id="tspan78" style="font-variant:normal;font-weight:700;font-size:10.000000px;font-family:DejaVu Sans;writing-mode:lr-tb;fill:#263746;fill-opacity:1;fill-rule:nonzero;stroke:none" x="0" dx="0 0 3.48" y="0">B Harmonic source gain</tspan></text>
    </g><g transform="matrix(1.0,0.0,0.0,1.0,0.0,0.0)"><text id="text79" xml:space="preserve" transform="matrix(1.3333333,0,0,1.3333333,158.09375,275.85383)" style="font-family:DejaVu Sans;font-size:9.000000px;font-weight:normal"><tspan id="tspan79" style="font-variant:normal;font-weight:normal;font-size:8.500000px;font-family:DejaVu Sans;writing-mode:lr-tb;fill:#263746;fill-opacity:1;fill-rule:nonzero;stroke:none" x="0" dx="0 0 0 0 0 0 0 0 0 0 0 0 0 -0.1875" y="0">Gaussian source</tspan></text>
    </g><g transform="matrix(1.0,0.0,0.0,1.0,0.0,0.0)"><text id="text81" xml:space="preserve" transform="matrix(1.3333333,0,0,1.3333333,305.80625,275.85383)" style="font-family:DejaVu Sans;font-size:9.000000px;font-weight:normal"><tspan id="tspan81" style="font-variant:normal;font-weight:normal;font-size:8.500000px;font-family:DejaVu Sans;writing-mode:lr-tb;fill:#263746;fill-opacity:1;fill-rule:nonzero;stroke:none" x="0" dx="0 0 0 -0.140625 0 0 0 0 0 0 0 0 0 -0.1875" y="0">Harmonic source</tspan></text>
  </g></g><defs/></svg>